<svg width="1148" height="229" viewBox="0 0 1148 229" fill="none" xmlns="http://www.w3.org/2000/svg">
<path d="M31.08 11.856C31.08 10.256 31.944 9.2 33.064 9.2C34.568 9.2 35.464 10.48 35.624 12.896C34.872 14 33.976 14.464 33.176 14.464C31.784 14.464 31.08 13.44 31.08 11.856ZM32.744 20.208C34.952 20.208 37 18.384 37 13.632C37 9.904 35.32 8.048 33.064 8.048C31.24 8.048 29.704 9.584 29.704 11.856C29.704 14.288 30.984 15.552 32.936 15.552C33.912 15.552 34.92 14.992 35.64 14.112C35.528 17.744 34.216 18.992 32.696 18.992C31.944 18.992 31.224 18.656 30.744 18.096L29.928 19.008C30.584 19.696 31.48 20.208 32.744 20.208ZM42.563 15.104C42.691 14.16 42.739 13.248 42.739 12.416H50.051V15.104H42.563ZM50.051 8.624V11.28H42.739V8.624H50.051ZM51.283 7.456H41.539V12.352C41.539 14.896 41.283 18.144 38.739 20.384C38.979 20.56 39.459 20.992 39.619 21.248C41.171 19.888 41.971 18.08 42.371 16.272H50.051V19.472C50.051 19.824 49.923 19.936 49.555 19.952C49.187 19.952 47.907 19.968 46.579 19.92C46.771 20.256 46.995 20.816 47.075 21.152C48.787 21.152 49.843 21.136 50.451 20.928C51.043 20.736 51.283 20.32 51.283 19.488V7.456Z" fill="black"/>
<path d="M127.317 20H133.749V18.784H131.397V8.256H130.277C129.637 8.64 128.885 8.912 127.845 9.104V10.032H129.925V18.784H127.317V20ZM139.552 20.208C141.776 20.208 143.2 18.176 143.2 14.096C143.2 10.032 141.776 8.048 139.552 8.048C137.312 8.048 135.888 10.016 135.888 14.096C135.888 18.176 137.312 20.208 139.552 20.208ZM139.552 19.04C138.208 19.04 137.312 17.552 137.312 14.096C137.312 10.672 138.208 9.216 139.552 9.216C140.88 9.216 141.776 10.672 141.776 14.096C141.776 17.552 140.88 19.04 139.552 19.04ZM148.667 15.104C148.795 14.16 148.843 13.248 148.843 12.416H156.155V15.104H148.667ZM156.155 8.624V11.28H148.843V8.624H156.155ZM157.387 7.456H147.643V12.352C147.643 14.896 147.387 18.144 144.843 20.384C145.083 20.56 145.563 20.992 145.723 21.248C147.275 19.888 148.075 18.08 148.475 16.272H156.155V19.472C156.155 19.824 156.027 19.936 155.659 19.952C155.291 19.952 154.011 19.968 152.683 19.92C152.875 20.256 153.099 20.816 153.179 21.152C154.891 21.152 155.947 21.136 156.555 20.928C157.147 20.736 157.387 20.32 157.387 19.488V7.456Z" fill="black"/>
<path d="M233.226 20H239.658V18.784H237.306V8.256H236.186C235.546 8.64 234.794 8.912 233.754 9.104V10.032H235.834V18.784H233.226V20ZM242.421 20H248.853V18.784H246.501V8.256H245.381C244.741 8.64 243.989 8.912 242.949 9.104V10.032H245.029V18.784H242.421V20ZM254.576 15.104C254.704 14.16 254.752 13.248 254.752 12.416H262.064V15.104H254.576ZM262.064 8.624V11.28H254.752V8.624H262.064ZM263.296 7.456H253.552V12.352C253.552 14.896 253.296 18.144 250.752 20.384C250.992 20.56 251.472 20.992 251.632 21.248C253.184 19.888 253.984 18.08 254.384 16.272H262.064V19.472C262.064 19.824 261.936 19.936 261.568 19.952C261.2 19.952 259.92 19.968 258.592 19.92C258.784 20.256 259.008 20.816 259.088 21.152C260.8 21.152 261.856 21.136 262.464 20.928C263.056 20.736 263.296 20.32 263.296 19.488V7.456Z" fill="black"/>
<path d="M339.135 20H345.567V18.784H343.215V8.256H342.095C341.455 8.64 340.703 8.912 339.663 9.104V10.032H341.743V18.784H339.135V20ZM347.626 20H355.002V18.736H351.754C351.162 18.736 350.442 18.8 349.834 18.848C352.586 16.24 354.426 13.856 354.426 11.52C354.426 9.424 353.114 8.048 351.018 8.048C349.53 8.048 348.522 8.736 347.562 9.776L348.41 10.608C349.05 9.84 349.882 9.248 350.842 9.248C352.298 9.248 353.002 10.224 353.002 11.568C353.002 13.584 351.306 15.92 347.626 19.136V20ZM360.485 15.104C360.613 14.16 360.661 13.248 360.661 12.416H367.973V15.104H360.485ZM367.973 8.624V11.28H360.661V8.624H367.973ZM369.205 7.456H359.461V12.352C359.461 14.896 359.205 18.144 356.661 20.384C356.901 20.56 357.381 20.992 357.541 21.248C359.093 19.888 359.893 18.08 360.293 16.272H367.973V19.472C367.973 19.824 367.845 19.936 367.477 19.952C367.109 19.952 365.829 19.968 364.501 19.92C364.693 20.256 364.917 20.816 364.997 21.152C366.709 21.152 367.765 21.136 368.373 20.928C368.965 20.736 369.205 20.32 369.205 19.488V7.456Z" fill="black"/>
<path d="M445.044 20H451.476V18.784H449.124V8.256H448.004C447.364 8.64 446.612 8.912 445.572 9.104V10.032H447.652V18.784H445.044V20ZM457.199 15.104C457.327 14.16 457.375 13.248 457.375 12.416H464.687V15.104H457.199ZM464.687 8.624V11.28H457.375V8.624H464.687ZM465.919 7.456H456.175V12.352C456.175 14.896 455.919 18.144 453.375 20.384C453.615 20.56 454.095 20.992 454.255 21.248C455.807 19.888 456.607 18.08 457.007 16.272H464.687V19.472C464.687 19.824 464.559 19.936 464.191 19.952C463.823 19.952 462.543 19.968 461.215 19.92C461.407 20.256 461.631 20.816 461.711 21.152C463.423 21.152 464.479 21.136 465.087 20.928C465.679 20.736 465.919 20.32 465.919 19.488V7.456Z" fill="black"/>
<path d="M541.249 20H548.625V18.736H545.377C544.785 18.736 544.065 18.8 543.457 18.848C546.209 16.24 548.049 13.856 548.049 11.52C548.049 9.424 546.737 8.048 544.641 8.048C543.153 8.048 542.145 8.736 541.185 9.776L542.033 10.608C542.673 9.84 543.505 9.248 544.465 9.248C545.921 9.248 546.625 10.224 546.625 11.568C546.625 13.584 544.929 15.92 541.249 19.136V20ZM554.108 15.104C554.236 14.16 554.284 13.248 554.284 12.416H561.596V15.104H554.108ZM561.596 8.624V11.28H554.284V8.624H561.596ZM562.828 7.456H553.084V12.352C553.084 14.896 552.828 18.144 550.284 20.384C550.524 20.56 551.004 20.992 551.164 21.248C552.716 19.888 553.516 18.08 553.916 16.272H561.596V19.472C561.596 19.824 561.468 19.936 561.1 19.952C560.732 19.952 559.452 19.968 558.124 19.92C558.316 20.256 558.54 20.816 558.62 21.152C560.332 21.152 561.388 21.136 561.996 20.928C562.588 20.736 562.828 20.32 562.828 19.488V7.456Z" fill="black"/>
<path d="M641.679 20.208C643.759 20.208 645.439 18.96 645.439 16.864C645.439 15.264 644.335 14.208 642.959 13.888V13.824C644.191 13.36 645.039 12.416 645.039 10.992C645.039 9.136 643.599 8.048 641.631 8.048C640.271 8.048 639.231 8.64 638.351 9.456L639.135 10.384C639.791 9.712 640.623 9.248 641.567 9.248C642.783 9.248 643.551 9.984 643.551 11.104C643.551 12.368 642.719 13.344 640.303 13.344V14.464C643.007 14.464 643.951 15.408 643.951 16.8C643.951 18.16 642.959 18.992 641.567 18.992C640.239 18.992 639.343 18.368 638.655 17.648L637.919 18.608C638.687 19.44 639.839 20.208 641.679 20.208ZM651.018 15.104C651.146 14.16 651.194 13.248 651.194 12.416H658.506V15.104H651.018ZM658.506 8.624V11.28H651.194V8.624H658.506ZM659.738 7.456H649.994V12.352C649.994 14.896 649.738 18.144 647.194 20.384C647.434 20.56 647.914 20.992 648.074 21.248C649.626 19.888 650.426 18.08 650.826 16.272H658.506V19.472C658.506 19.824 658.378 19.936 658.01 19.952C657.642 19.952 656.362 19.968 655.034 19.92C655.226 20.256 655.45 20.816 655.53 21.152C657.242 21.152 658.298 21.136 658.906 20.928C659.498 20.736 659.738 20.32 659.738 19.488V7.456Z" fill="black"/>
<path d="M736.204 15.6L738.876 11.6C739.212 11.024 739.532 10.448 739.82 9.872H739.884C739.852 10.48 739.804 11.424 739.804 12V15.6H736.204ZM739.804 20H741.18V16.768H742.732V15.6H741.18V8.256H739.564L734.684 15.808V16.768H739.804V20ZM747.927 15.104C748.055 14.16 748.103 13.248 748.103 12.416H755.415V15.104H747.927ZM755.415 8.624V11.28H748.103V8.624H755.415ZM756.647 7.456H746.903V12.352C746.903 14.896 746.647 18.144 744.103 20.384C744.343 20.56 744.823 20.992 744.983 21.248C746.535 19.888 747.335 18.08 747.735 16.272H755.415V19.472C755.415 19.824 755.287 19.936 754.919 19.952C754.551 19.952 753.271 19.968 751.943 19.92C752.135 20.256 752.359 20.816 752.439 21.152C754.151 21.152 755.207 21.136 755.815 20.928C756.407 20.736 756.647 20.32 756.647 19.488V7.456Z" fill="black"/>
<path d="M835.449 20.208C837.433 20.208 839.289 18.752 839.289 16.176C839.289 13.6 837.705 12.448 835.753 12.448C835.049 12.448 834.537 12.624 834.009 12.912L834.297 9.52H838.729V8.256H833.017L832.649 13.76L833.433 14.24C834.105 13.792 834.601 13.552 835.385 13.552C836.857 13.552 837.817 14.544 837.817 16.224C837.817 17.936 836.697 18.992 835.321 18.992C833.961 18.992 833.113 18.368 832.441 17.696L831.721 18.656C832.505 19.44 833.625 20.208 835.449 20.208ZM844.836 15.104C844.964 14.16 845.012 13.248 845.012 12.416H852.324V15.104H844.836ZM852.324 8.624V11.28H845.012V8.624H852.324ZM853.556 7.456H843.812V12.352C843.812 14.896 843.556 18.144 841.012 20.384C841.252 20.56 841.732 20.992 841.892 21.248C843.444 19.888 844.244 18.08 844.644 16.272H852.324V19.472C852.324 19.824 852.196 19.936 851.828 19.952C851.46 19.952 850.18 19.968 848.852 19.92C849.044 20.256 849.268 20.816 849.348 21.152C851.06 21.152 852.116 21.136 852.724 20.928C853.316 20.736 853.556 20.32 853.556 19.488V7.456Z" fill="black"/>
<path d="M932.87 13.808C934.294 13.808 934.998 14.816 934.998 16.4C934.998 18 934.118 19.072 932.998 19.072C931.526 19.072 930.646 17.744 930.47 15.312C931.19 14.24 932.134 13.808 932.87 13.808ZM932.998 20.208C934.822 20.208 936.358 18.672 936.358 16.4C936.358 13.952 935.094 12.72 933.11 12.72C932.182 12.72 931.158 13.264 930.438 14.144C930.502 10.496 931.862 9.264 933.462 9.264C934.182 9.264 934.886 9.6 935.35 10.16L936.15 9.248C935.51 8.56 934.63 8.048 933.414 8.048C931.142 8.048 929.078 9.808 929.078 14.4C929.078 18.272 930.742 20.208 932.998 20.208ZM941.745 15.104C941.873 14.16 941.921 13.248 941.921 12.416H949.233V15.104H941.745ZM949.233 8.624V11.28H941.921V8.624H949.233ZM950.465 7.456H940.721V12.352C940.721 14.896 940.465 18.144 937.921 20.384C938.161 20.56 938.641 20.992 938.801 21.248C940.353 19.888 941.153 18.08 941.553 16.272H949.233V19.472C949.233 19.824 949.105 19.936 948.737 19.952C948.369 19.952 947.089 19.968 945.761 19.92C945.953 20.256 946.177 20.816 946.257 21.152C947.969 21.152 949.025 21.136 949.633 20.928C950.225 20.736 950.465 20.32 950.465 19.488V7.456Z" fill="black"/>
<path d="M1028.26 20H1029.78C1029.95 15.408 1030.47 12.672 1033.22 9.152V8.256H1025.87V9.52H1031.55C1029.27 12.72 1028.45 15.552 1028.26 20ZM1038.65 15.104C1038.78 14.16 1038.83 13.248 1038.83 12.416H1046.14V15.104H1038.65ZM1046.14 8.624V11.28H1038.83V8.624H1046.14ZM1047.37 7.456H1037.63V12.352C1037.63 14.896 1037.37 18.144 1034.83 20.384C1035.07 20.56 1035.55 20.992 1035.71 21.248C1037.26 19.888 1038.06 18.08 1038.46 16.272H1046.14V19.472C1046.14 19.824 1046.01 19.936 1045.65 19.952C1045.28 19.952 1044 19.968 1042.67 19.92C1042.86 20.256 1043.09 20.816 1043.17 21.152C1044.88 21.152 1045.93 21.136 1046.54 20.928C1047.13 20.736 1047.37 20.32 1047.37 19.488V7.456Z" fill="black"/>
<path d="M1126.46 20.208C1128.67 20.208 1130.14 18.88 1130.14 17.168C1130.14 15.568 1129.18 14.688 1128.16 14.096V14.016C1128.86 13.472 1129.73 12.416 1129.73 11.184C1129.73 9.376 1128.51 8.096 1126.51 8.096C1124.69 8.096 1123.3 9.28 1123.3 11.072C1123.3 12.304 1124.02 13.184 1124.88 13.776V13.856C1123.81 14.432 1122.72 15.52 1122.72 17.088C1122.72 18.896 1124.3 20.208 1126.46 20.208ZM1127.26 13.632C1125.89 13.088 1124.62 12.48 1124.62 11.072C1124.62 9.936 1125.41 9.168 1126.5 9.168C1127.76 9.168 1128.48 10.112 1128.48 11.264C1128.48 12.128 1128.06 12.928 1127.26 13.632ZM1126.5 19.12C1125.09 19.12 1124.05 18.208 1124.05 16.96C1124.05 15.84 1124.7 14.912 1125.65 14.304C1127.31 14.976 1128.75 15.568 1128.75 17.136C1128.75 18.304 1127.84 19.12 1126.5 19.12ZM1135.56 15.104C1135.69 14.16 1135.74 13.248 1135.74 12.416H1143.05V15.104H1135.56ZM1143.05 8.624V11.28H1135.74V8.624H1143.05ZM1144.28 7.456H1134.54V12.352C1134.54 14.896 1134.28 18.144 1131.74 20.384C1131.98 20.56 1132.46 20.992 1132.62 21.248C1134.17 19.888 1134.97 18.08 1135.37 16.272H1143.05V19.472C1143.05 19.824 1142.92 19.936 1142.55 19.952C1142.19 19.952 1140.91 19.968 1139.58 19.92C1139.77 20.256 1139.99 20.816 1140.07 21.152C1141.79 21.152 1142.84 21.136 1143.45 20.928C1144.04 20.736 1144.28 20.32 1144.28 19.488V7.456Z" fill="black"/>
<rect x="29.3086" y="49.5" width="335" height="46" rx="4" fill="#37995E"/>
<path d="M168.245 79.5V69.292H164.789V67.724H173.573V69.292H170.117V79.5H168.245ZM180.282 79.724C177.658 79.724 175.898 78.284 175.898 74.46V67.724H177.754V74.572C177.754 77.228 178.81 78.092 180.282 78.092C181.754 78.092 182.858 77.228 182.858 74.572V67.724H184.65V74.46C184.65 78.284 182.89 79.724 180.282 79.724ZM189.956 79.5L186.276 67.724H188.244L189.988 73.82C190.372 75.18 190.66 76.316 191.06 77.676H191.14C191.556 76.316 191.828 75.18 192.212 73.82L193.94 67.724H195.844L192.164 79.5H189.956ZM196.832 76.14H211.424V77.356H196.832V76.14ZM197.296 67.148H210.8V68.316H197.296V67.148ZM206.224 75.148H207.68V79.324C207.68 80.06 207.536 80.444 206.976 80.652C206.4 80.844 205.552 80.844 204.288 80.844C204.224 80.46 204.032 79.916 203.84 79.532C204.72 79.564 205.632 79.564 205.888 79.564C206.144 79.548 206.224 79.484 206.224 79.276V75.148ZM203.344 66.012H204.832V74.62H203.344V66.012ZM199.392 77.98L200.432 77.1C201.344 77.644 202.496 78.492 203.04 79.116L201.936 80.092C201.408 79.468 200.32 78.572 199.392 77.98ZM199.968 71.772V72.604H208.336V71.772H199.968ZM199.968 70.044V70.86H208.336V70.044H199.968ZM198.544 69.084H209.824V73.564H198.544V69.084ZM206.448 73.868L207.328 73.148C208.56 73.596 210.032 74.412 210.816 75.004L209.92 75.82C209.152 75.18 207.664 74.332 206.448 73.868ZM197.488 74.348C200.416 74.364 205.104 74.332 209.504 74.252L209.44 75.228C205.152 75.356 200.592 75.436 197.552 75.484L197.488 74.348ZM219.632 74.556H221.152V80.844H219.632V74.556ZM213.664 67.148H227.28V69.516H225.824V68.412H215.072V69.516H213.664V67.148ZM213.392 70.06H227.52V71.26H213.392V70.06ZM213.232 75.788H227.68V77.068H213.232V75.788ZM223.616 68.988L225.104 69.324C223.712 73.5 220.464 74.684 213.856 75.084C213.744 74.636 213.552 74.14 213.328 73.82C219.536 73.596 222.496 72.54 223.616 68.988ZM215.344 72.732L216.56 71.804C220.624 72.396 224.848 73.372 227.424 74.236L225.952 75.228C223.648 74.332 219.648 73.388 215.344 72.732ZM219.168 66.332L220.72 65.98C221.056 66.46 221.472 67.148 221.664 67.58L220.032 68.012C219.856 67.564 219.472 66.844 219.168 66.332ZM215.344 72.732C216.576 71.612 218.192 69.852 219.088 68.412L220.528 68.86C219.552 70.252 218 71.82 216.928 72.732H215.344ZM217.04 77.244L218.544 77.756C217.584 78.844 215.968 79.852 214.592 80.46C214.304 80.172 213.696 79.676 213.328 79.436C214.752 78.94 216.224 78.14 217.04 77.244ZM222.192 77.996L223.264 77.036C224.672 77.692 226.528 78.748 227.472 79.516L226.32 80.588C225.456 79.804 223.632 78.7 222.192 77.996Z" fill="white"/>
<rect x="338.309" y="119.5" width="512" height="46" rx="4" fill="#37995E"/>
<path d="M576.705 139.82C576.497 139.1 576.001 137.932 575.505 137.052L574.433 137.42C574.897 138.316 575.377 139.516 575.553 140.268L576.705 139.82ZM572.497 137.708H570.881C570.721 137.228 570.497 136.62 570.289 136.156L569.041 136.38C569.201 136.78 569.393 137.276 569.537 137.708H567.745V138.876H572.497V137.708ZM565.825 140.06H564.401V138.06H565.825V140.06ZM564.401 144.54H565.825V146.524C565.345 146.636 564.849 146.732 564.401 146.812V144.54ZM565.825 143.308H564.401V141.292H565.825V143.308ZM567.649 138.06V136.732H562.529V138.06H563.281V147.036C562.945 147.1 562.657 147.132 562.369 147.18L562.657 148.46C563.601 148.252 564.705 147.996 565.825 147.756V150.78H566.977V138.06H567.649ZM569.185 147.452V146.172H571.105V147.452H569.185ZM571.105 143.9V145.132H569.185V143.9H571.105ZM575.841 142.78C575.537 143.788 575.137 144.732 574.657 145.596C574.529 144.588 574.417 143.388 574.337 142.092H577.089V140.828H574.273C574.209 139.356 574.161 137.756 574.161 136.092H572.881C572.913 137.772 572.945 139.356 573.025 140.828H571.617C571.777 140.348 571.937 139.724 572.113 139.164L570.945 138.956C570.865 139.5 570.689 140.252 570.529 140.828H569.505C569.441 140.3 569.265 139.548 569.089 138.972L568.033 139.148C568.177 139.66 568.321 140.316 568.385 140.828H567.457V142.092H573.089C573.201 144.06 573.377 145.756 573.633 147.132C573.201 147.676 572.721 148.204 572.241 148.652V142.844H568.033V149.628H569.185V148.492H571.105V148.892H571.969C571.569 149.244 571.153 149.548 570.721 149.82C571.025 150.044 571.409 150.396 571.585 150.652C572.417 150.092 573.233 149.388 573.969 148.572C574.385 149.932 574.929 150.716 575.713 150.732C576.257 150.732 576.865 150.14 577.201 147.74C576.977 147.612 576.481 147.244 576.257 146.956C576.177 148.3 576.001 149.1 575.761 149.1C575.441 149.084 575.169 148.46 574.929 147.372C575.777 146.204 576.481 144.844 576.977 143.356L575.841 142.78ZM583.137 137.804C582.561 137.244 581.345 136.572 580.401 136.172L579.569 137.276C580.513 137.724 581.713 138.476 582.257 139.02L583.137 137.804ZM582.321 141.948C581.729 141.436 580.513 140.796 579.569 140.428L578.737 141.548C579.713 141.964 580.897 142.668 581.457 143.196L582.321 141.948ZM581.425 144.54C580.721 146.396 579.745 148.476 579.057 149.724L580.433 150.54C581.169 149.004 582.001 147.1 582.641 145.388L581.425 144.54ZM585.089 138.156H593.345V136.844H583.681V141.212C583.681 143.82 583.537 147.5 581.873 150.076C582.241 150.204 582.865 150.54 583.137 150.78C584.849 148.076 585.089 143.98 585.089 141.212V138.156ZM585.329 142.796V144.028H593.249V142.796H589.937V141.084H592.689V139.868H589.937V138.492H588.561V139.868H585.969V141.084H588.561V142.796H585.329ZM589.937 148.988V147.036H593.009V145.82H589.937V144.348H588.561V145.82H585.569V147.036H588.561V148.988H584.577V150.268H593.473V148.988H589.937ZM603.153 143.548H605.121L604.753 143.852C605.073 143.964 605.409 144.108 605.729 144.268L603.153 144.3V143.548ZM598.337 142.62V141.788H601.697V142.62H598.337ZM598.337 140.076H601.697V140.876H598.337V140.076ZM606.625 140.076V140.876H603.153V140.076H606.625ZM606.625 142.62H603.153V141.788H606.625V142.62ZM609.665 146.092H605.969V145.228L607.361 145.196C607.681 145.404 607.969 145.596 608.193 145.788L609.073 144.988C608.497 144.54 607.553 143.98 606.593 143.548H608.081V139.116H603.153V138.364H609.057V137.212H603.153V136.092H601.697V137.212H595.697V138.364H601.697V139.116H596.929V143.548H601.697V144.3C599.473 144.316 597.425 144.332 595.889 144.332L595.937 145.452C598.209 145.42 601.313 145.356 604.513 145.276V146.092H595.249V147.292H598.497L597.777 147.916C598.689 148.508 599.777 149.388 600.289 149.996L601.377 149.036C600.913 148.524 600.017 147.82 599.201 147.292H604.513V149.212C604.513 149.404 604.449 149.468 604.193 149.484C603.953 149.5 603.041 149.5 602.161 149.468C602.353 149.82 602.561 150.38 602.625 150.748C603.857 150.748 604.705 150.748 605.249 150.556C605.825 150.348 605.969 149.964 605.969 149.26V147.292H609.665V146.092ZM624.097 139.564H625.521V137.212H619.761C619.553 136.828 619.265 136.396 619.057 136.044L617.521 136.396C617.649 136.652 617.809 136.924 617.969 137.212H612.081V139.564H613.457V138.46H624.097V139.564ZM620.673 141.276C620.225 141.772 619.665 142.204 618.993 142.524C618.049 142.348 617.073 142.172 616.097 142.012C616.337 141.772 616.593 141.532 616.849 141.276H620.673ZM625.665 144.236C624.401 143.82 622.737 143.356 620.881 142.94C621.521 142.476 622.049 141.932 622.481 141.276H625.761V140.092H623.105C623.201 139.852 623.297 139.612 623.377 139.356L621.921 139.052C621.793 139.42 621.665 139.772 621.489 140.092H617.921C618.273 139.692 618.577 139.292 618.849 138.908L617.441 138.46C617.105 138.988 616.705 139.532 616.241 140.092H611.809V141.276H615.201C614.689 141.804 614.193 142.332 613.745 142.732C614.785 142.892 615.825 143.084 616.833 143.276C615.441 143.58 613.777 143.74 611.745 143.82C611.953 144.14 612.161 144.62 612.273 145.052C615.281 144.86 617.601 144.524 619.329 143.804C621.313 144.236 622.993 144.732 624.225 145.196L625.665 144.236ZM615.409 147.196C614.609 148.076 613.137 148.876 611.745 149.356C612.113 149.596 612.705 150.076 612.993 150.364C614.353 149.756 615.953 148.764 616.881 147.676L615.409 147.196ZM625.937 145.772H619.473V144.556H617.985V145.772H611.665V147.004H617.985V150.748H619.473V147.004H621.521L620.513 147.932C621.921 148.62 623.713 149.724 624.577 150.492L625.713 149.436C624.785 148.668 622.961 147.644 621.569 147.004H625.937V145.772Z" fill="white"/>
<rect x="736.309" y="182.5" width="306" height="46" rx="4" fill="#37995E"/>
<path d="M862.425 205.876L860.809 206.356V203.572H862.649V202.196H860.809V199.108H859.369V202.196H857.529V203.572H859.369V206.756C858.585 206.98 857.881 207.188 857.305 207.332L857.641 208.772L859.369 208.228V212.052C859.369 212.276 859.289 212.34 859.081 212.34C858.905 212.34 858.297 212.34 857.673 212.324C857.865 212.724 858.057 213.38 858.105 213.764C859.113 213.78 859.769 213.716 860.217 213.46C860.649 213.236 860.809 212.82 860.809 212.052V207.796C861.417 207.604 862.041 207.412 862.633 207.22L862.425 205.876ZM869.881 208.5V211.684H864.985V208.5H869.881ZM863.545 213.748H864.985V213.028H869.881V213.684H871.369V207.172H863.545V213.748ZM863.081 199.86V201.204H865.593C865.337 203.076 864.697 204.644 862.537 205.556C862.873 205.812 863.273 206.356 863.449 206.724C865.993 205.556 866.777 203.588 867.097 201.204H870.105C869.977 203.572 869.833 204.548 869.593 204.804C869.465 204.948 869.321 204.98 869.081 204.98C868.825 204.98 868.201 204.98 867.545 204.916C867.769 205.3 867.945 205.892 867.961 206.324C868.681 206.34 869.401 206.34 869.785 206.292C870.249 206.244 870.553 206.116 870.841 205.764C871.257 205.284 871.417 203.924 871.577 200.452C871.593 200.26 871.593 199.86 871.593 199.86H863.081ZM881.929 211.828V208.148H886.905V206.724H881.929V203.524H887.497V202.068H881.929V199.092H880.393V202.068H877.497C877.801 201.3 878.089 200.484 878.329 199.668L876.793 199.316C876.201 201.556 875.193 203.748 873.897 205.108C874.297 205.316 874.953 205.748 875.257 206.004C875.817 205.332 876.345 204.484 876.841 203.524H880.393V206.724H875.833V208.148H880.393V211.828H874.057V213.268H888.265V211.828H881.929ZM898.153 206.548H900.121L899.753 206.852C900.073 206.964 900.409 207.108 900.729 207.268L898.153 207.3V206.548ZM893.337 205.62V204.788H896.697V205.62H893.337ZM893.337 203.076H896.697V203.876H893.337V203.076ZM901.625 203.076V203.876H898.153V203.076H901.625ZM901.625 205.62H898.153V204.788H901.625V205.62ZM904.665 209.092H900.969V208.228L902.361 208.196C902.681 208.404 902.969 208.596 903.193 208.788L904.073 207.988C903.497 207.54 902.553 206.98 901.593 206.548H903.081V202.116H898.153V201.364H904.057V200.212H898.153V199.092H896.697V200.212H890.697V201.364H896.697V202.116H891.929V206.548H896.697V207.3C894.473 207.316 892.425 207.332 890.889 207.332L890.937 208.452C893.209 208.42 896.313 208.356 899.513 208.276V209.092H890.249V210.292H893.497L892.777 210.916C893.689 211.508 894.777 212.388 895.289 212.996L896.377 212.036C895.913 211.524 895.017 210.82 894.201 210.292H899.513V212.212C899.513 212.404 899.449 212.468 899.193 212.484C898.953 212.5 898.041 212.5 897.161 212.468C897.353 212.82 897.561 213.38 897.625 213.748C898.857 213.748 899.705 213.748 900.249 213.556C900.825 213.348 900.969 212.964 900.969 212.26V210.292H904.665V209.092ZM919.097 202.564H920.521V200.212H914.761C914.553 199.828 914.265 199.396 914.057 199.044L912.521 199.396C912.649 199.652 912.809 199.924 912.969 200.212H907.081V202.564H908.457V201.46H919.097V202.564ZM915.673 204.276C915.225 204.772 914.665 205.204 913.993 205.524C913.049 205.348 912.073 205.172 911.097 205.012C911.337 204.772 911.593 204.532 911.849 204.276H915.673ZM920.665 207.236C919.401 206.82 917.737 206.356 915.881 205.94C916.521 205.476 917.049 204.932 917.481 204.276H920.761V203.092H918.105C918.201 202.852 918.297 202.612 918.377 202.356L916.921 202.052C916.793 202.42 916.665 202.772 916.489 203.092H912.921C913.273 202.692 913.577 202.292 913.849 201.908L912.441 201.46C912.105 201.988 911.705 202.532 911.241 203.092H906.809V204.276H910.201C909.689 204.804 909.193 205.332 908.745 205.732C909.785 205.892 910.825 206.084 911.833 206.276C910.441 206.58 908.777 206.74 906.745 206.82C906.953 207.14 907.161 207.62 907.273 208.052C910.281 207.86 912.601 207.524 914.329 206.804C916.313 207.236 917.993 207.732 919.225 208.196L920.665 207.236ZM910.409 210.196C909.609 211.076 908.137 211.876 906.745 212.356C907.113 212.596 907.705 213.076 907.993 213.364C909.353 212.756 910.953 211.764 911.881 210.676L910.409 210.196ZM920.937 208.772H914.473V207.556H912.985V208.772H906.665V210.004H912.985V213.748H914.473V210.004H916.521L915.513 210.932C916.921 211.62 918.713 212.724 919.577 213.492L920.713 212.436C919.785 211.668 917.961 210.644 916.569 210.004H920.937V208.772Z" fill="white"/>
</svg>
