<svg width="1148" height="230" viewBox="0 0 1148 230" fill="none" xmlns="http://www.w3.org/2000/svg">
<path d="M30.7714 12.356C30.7714 10.756 31.6354 9.7 32.7554 9.7C34.2594 9.7 35.1554 10.98 35.3154 13.396C34.5634 14.5 33.6674 14.964 32.8674 14.964C31.4754 14.964 30.7714 13.94 30.7714 12.356ZM32.4354 20.708C34.6434 20.708 36.6914 18.884 36.6914 14.132C36.6914 10.404 35.0114 8.548 32.7554 8.548C30.9314 8.548 29.3954 10.084 29.3954 12.356C29.3954 14.788 30.6754 16.052 32.6274 16.052C33.6034 16.052 34.6114 15.492 35.3314 14.612C35.2194 18.244 33.9074 19.492 32.3874 19.492C31.6354 19.492 30.9154 19.156 30.4354 18.596L29.6194 19.508C30.2754 20.196 31.1714 20.708 32.4354 20.708ZM42.2544 15.604C42.3824 14.66 42.4304 13.748 42.4304 12.916H49.7424V15.604H42.2544ZM49.7424 9.124V11.78H42.4304V9.124H49.7424ZM50.9744 7.956H41.2304V12.852C41.2304 15.396 40.9744 18.644 38.4304 20.884C38.6704 21.06 39.1504 21.492 39.3104 21.748C40.8624 20.388 41.6624 18.58 42.0624 16.772H49.7424V19.972C49.7424 20.324 49.6144 20.436 49.2464 20.452C48.8784 20.452 47.5984 20.468 46.2704 20.42C46.4624 20.756 46.6864 21.316 46.7664 21.652C48.4784 21.652 49.5344 21.636 50.1424 21.428C50.7344 21.236 50.9744 20.82 50.9744 19.988V7.956Z" fill="black"/>
<path d="M127.009 20.5H133.441V19.284H131.089V8.756H129.969C129.329 9.14 128.577 9.412 127.537 9.604V10.532H129.617V19.284H127.009V20.5ZM139.244 20.708C141.468 20.708 142.892 18.676 142.892 14.596C142.892 10.532 141.468 8.548 139.244 8.548C137.004 8.548 135.58 10.516 135.58 14.596C135.58 18.676 137.004 20.708 139.244 20.708ZM139.244 19.54C137.9 19.54 137.004 18.052 137.004 14.596C137.004 11.172 137.9 9.716 139.244 9.716C140.572 9.716 141.468 11.172 141.468 14.596C141.468 18.052 140.572 19.54 139.244 19.54ZM148.359 15.604C148.487 14.66 148.535 13.748 148.535 12.916H155.847V15.604H148.359ZM155.847 9.124V11.78H148.535V9.124H155.847ZM157.079 7.956H147.335V12.852C147.335 15.396 147.079 18.644 144.535 20.884C144.775 21.06 145.255 21.492 145.415 21.748C146.967 20.388 147.767 18.58 148.167 16.772H155.847V19.972C155.847 20.324 155.719 20.436 155.351 20.452C154.983 20.452 153.703 20.468 152.375 20.42C152.567 20.756 152.791 21.316 152.871 21.652C154.583 21.652 155.639 21.636 156.247 21.428C156.839 21.236 157.079 20.82 157.079 19.988V7.956Z" fill="black"/>
<path d="M232.918 20.5H239.35V19.284H236.998V8.756H235.878C235.238 9.14 234.486 9.412 233.446 9.604V10.532H235.526V19.284H232.918V20.5ZM242.113 20.5H248.545V19.284H246.193V8.756H245.073C244.433 9.14 243.681 9.412 242.641 9.604V10.532H244.721V19.284H242.113V20.5ZM254.268 15.604C254.396 14.66 254.444 13.748 254.444 12.916H261.756V15.604H254.268ZM261.756 9.124V11.78H254.444V9.124H261.756ZM262.988 7.956H253.244V12.852C253.244 15.396 252.988 18.644 250.444 20.884C250.684 21.06 251.164 21.492 251.324 21.748C252.876 20.388 253.676 18.58 254.076 16.772H261.756V19.972C261.756 20.324 261.628 20.436 261.26 20.452C260.892 20.452 259.612 20.468 258.284 20.42C258.476 20.756 258.7 21.316 258.78 21.652C260.492 21.652 261.548 21.636 262.156 21.428C262.748 21.236 262.988 20.82 262.988 19.988V7.956Z" fill="black"/>
<path d="M338.827 20.5H345.259V19.284H342.907V8.756H341.787C341.147 9.14 340.395 9.412 339.355 9.604V10.532H341.435V19.284H338.827V20.5ZM347.318 20.5H354.694V19.236H351.446C350.854 19.236 350.134 19.3 349.526 19.348C352.278 16.74 354.118 14.356 354.118 12.02C354.118 9.924 352.806 8.548 350.71 8.548C349.222 8.548 348.214 9.236 347.254 10.276L348.102 11.108C348.742 10.34 349.574 9.748 350.534 9.748C351.99 9.748 352.694 10.724 352.694 12.068C352.694 14.084 350.998 16.42 347.318 19.636V20.5ZM360.177 15.604C360.305 14.66 360.353 13.748 360.353 12.916H367.665V15.604H360.177ZM367.665 9.124V11.78H360.353V9.124H367.665ZM368.897 7.956H359.153V12.852C359.153 15.396 358.897 18.644 356.353 20.884C356.593 21.06 357.073 21.492 357.233 21.748C358.785 20.388 359.585 18.58 359.985 16.772H367.665V19.972C367.665 20.324 367.537 20.436 367.169 20.452C366.801 20.452 365.521 20.468 364.193 20.42C364.385 20.756 364.609 21.316 364.689 21.652C366.401 21.652 367.457 21.636 368.065 21.428C368.657 21.236 368.897 20.82 368.897 19.988V7.956Z" fill="black"/>
<path d="M444.736 20.5H451.168V19.284H448.816V8.756H447.696C447.056 9.14 446.304 9.412 445.264 9.604V10.532H447.344V19.284H444.736V20.5ZM456.891 15.604C457.019 14.66 457.067 13.748 457.067 12.916H464.379V15.604H456.891ZM464.379 9.124V11.78H457.067V9.124H464.379ZM465.611 7.956H455.867V12.852C455.867 15.396 455.611 18.644 453.067 20.884C453.307 21.06 453.787 21.492 453.947 21.748C455.499 20.388 456.299 18.58 456.699 16.772H464.379V19.972C464.379 20.324 464.251 20.436 463.883 20.452C463.515 20.452 462.235 20.468 460.907 20.42C461.099 20.756 461.323 21.316 461.403 21.652C463.115 21.652 464.171 21.636 464.779 21.428C465.371 21.236 465.611 20.82 465.611 19.988V7.956Z" fill="black"/>
<path d="M540.941 20.5H548.317V19.236H545.069C544.477 19.236 543.757 19.3 543.149 19.348C545.901 16.74 547.741 14.356 547.741 12.02C547.741 9.924 546.429 8.548 544.333 8.548C542.845 8.548 541.837 9.236 540.877 10.276L541.725 11.108C542.365 10.34 543.197 9.748 544.157 9.748C545.613 9.748 546.317 10.724 546.317 12.068C546.317 14.084 544.621 16.42 540.941 19.636V20.5ZM553.8 15.604C553.928 14.66 553.976 13.748 553.976 12.916H561.288V15.604H553.8ZM561.288 9.124V11.78H553.976V9.124H561.288ZM562.52 7.956H552.776V12.852C552.776 15.396 552.52 18.644 549.976 20.884C550.216 21.06 550.696 21.492 550.856 21.748C552.408 20.388 553.208 18.58 553.608 16.772H561.288V19.972C561.288 20.324 561.16 20.436 560.792 20.452C560.424 20.452 559.144 20.468 557.816 20.42C558.008 20.756 558.232 21.316 558.312 21.652C560.024 21.652 561.08 21.636 561.688 21.428C562.28 21.236 562.52 20.82 562.52 19.988V7.956Z" fill="black"/>
<path d="M641.37 20.708C643.45 20.708 645.13 19.46 645.13 17.364C645.13 15.764 644.026 14.708 642.65 14.388V14.324C643.882 13.86 644.73 12.916 644.73 11.492C644.73 9.636 643.29 8.548 641.322 8.548C639.962 8.548 638.922 9.14 638.042 9.956L638.826 10.884C639.482 10.212 640.314 9.748 641.258 9.748C642.474 9.748 643.242 10.484 643.242 11.604C643.242 12.868 642.41 13.844 639.994 13.844V14.964C642.698 14.964 643.642 15.908 643.642 17.3C643.642 18.66 642.65 19.492 641.258 19.492C639.93 19.492 639.034 18.868 638.346 18.148L637.61 19.108C638.378 19.94 639.53 20.708 641.37 20.708ZM650.709 15.604C650.837 14.66 650.885 13.748 650.885 12.916H658.197V15.604H650.709ZM658.197 9.124V11.78H650.885V9.124H658.197ZM659.429 7.956H649.685V12.852C649.685 15.396 649.429 18.644 646.885 20.884C647.125 21.06 647.605 21.492 647.765 21.748C649.317 20.388 650.117 18.58 650.517 16.772H658.197V19.972C658.197 20.324 658.069 20.436 657.701 20.452C657.333 20.452 656.053 20.468 654.725 20.42C654.917 20.756 655.141 21.316 655.221 21.652C656.933 21.652 657.989 21.636 658.597 21.428C659.189 21.236 659.429 20.82 659.429 19.988V7.956Z" fill="black"/>
<path d="M735.895 16.1L738.567 12.1C738.903 11.524 739.223 10.948 739.511 10.372H739.575C739.543 10.98 739.495 11.924 739.495 12.5V16.1H735.895ZM739.495 20.5H740.871V17.268H742.423V16.1H740.871V8.756H739.255L734.375 16.308V17.268H739.495V20.5ZM747.618 15.604C747.746 14.66 747.794 13.748 747.794 12.916H755.106V15.604H747.618ZM755.106 9.124V11.78H747.794V9.124H755.106ZM756.338 7.956H746.594V12.852C746.594 15.396 746.338 18.644 743.794 20.884C744.034 21.06 744.514 21.492 744.674 21.748C746.226 20.388 747.026 18.58 747.426 16.772H755.106V19.972C755.106 20.324 754.978 20.436 754.61 20.452C754.242 20.452 752.962 20.468 751.634 20.42C751.826 20.756 752.05 21.316 752.13 21.652C753.842 21.652 754.898 21.636 755.506 21.428C756.098 21.236 756.338 20.82 756.338 19.988V7.956Z" fill="black"/>
<path d="M835.14 20.708C837.124 20.708 838.98 19.252 838.98 16.676C838.98 14.1 837.396 12.948 835.444 12.948C834.74 12.948 834.228 13.124 833.7 13.412L833.988 10.02H838.42V8.756H832.708L832.34 14.26L833.124 14.74C833.796 14.292 834.292 14.052 835.076 14.052C836.548 14.052 837.508 15.044 837.508 16.724C837.508 18.436 836.388 19.492 835.012 19.492C833.652 19.492 832.804 18.868 832.132 18.196L831.412 19.156C832.196 19.94 833.316 20.708 835.14 20.708ZM844.527 15.604C844.655 14.66 844.703 13.748 844.703 12.916H852.015V15.604H844.527ZM852.015 9.124V11.78H844.703V9.124H852.015ZM853.247 7.956H843.503V12.852C843.503 15.396 843.247 18.644 840.703 20.884C840.943 21.06 841.423 21.492 841.583 21.748C843.135 20.388 843.935 18.58 844.335 16.772H852.015V19.972C852.015 20.324 851.887 20.436 851.519 20.452C851.151 20.452 849.871 20.468 848.543 20.42C848.735 20.756 848.959 21.316 849.039 21.652C850.751 21.652 851.807 21.636 852.415 21.428C853.007 21.236 853.247 20.82 853.247 19.988V7.956Z" fill="black"/>
<path d="M932.561 14.308C933.985 14.308 934.689 15.316 934.689 16.9C934.689 18.5 933.809 19.572 932.689 19.572C931.217 19.572 930.337 18.244 930.161 15.812C930.881 14.74 931.825 14.308 932.561 14.308ZM932.689 20.708C934.513 20.708 936.049 19.172 936.049 16.9C936.049 14.452 934.785 13.22 932.801 13.22C931.873 13.22 930.849 13.764 930.129 14.644C930.193 10.996 931.553 9.764 933.153 9.764C933.873 9.764 934.577 10.1 935.041 10.66L935.841 9.748C935.201 9.06 934.321 8.548 933.105 8.548C930.833 8.548 928.769 10.308 928.769 14.9C928.769 18.772 930.433 20.708 932.689 20.708ZM941.436 15.604C941.564 14.66 941.612 13.748 941.612 12.916H948.924V15.604H941.436ZM948.924 9.124V11.78H941.612V9.124H948.924ZM950.156 7.956H940.412V12.852C940.412 15.396 940.156 18.644 937.612 20.884C937.852 21.06 938.332 21.492 938.492 21.748C940.044 20.388 940.844 18.58 941.244 16.772H948.924V19.972C948.924 20.324 948.796 20.436 948.428 20.452C948.06 20.452 946.78 20.468 945.452 20.42C945.644 20.756 945.868 21.316 945.948 21.652C947.66 21.652 948.716 21.636 949.324 21.428C949.916 21.236 950.156 20.82 950.156 19.988V7.956Z" fill="black"/>
<path d="M1027.95 20.5H1029.47C1029.65 15.908 1030.16 13.172 1032.91 9.652V8.756H1025.57V10.02H1031.25C1028.96 13.22 1028.14 16.052 1027.95 20.5ZM1038.35 15.604C1038.47 14.66 1038.52 13.748 1038.52 12.916H1045.83V15.604H1038.35ZM1045.83 9.124V11.78H1038.52V9.124H1045.83ZM1047.07 7.956H1037.32V12.852C1037.32 15.396 1037.07 18.644 1034.52 20.884C1034.76 21.06 1035.24 21.492 1035.4 21.748C1036.95 20.388 1037.75 18.58 1038.15 16.772H1045.83V19.972C1045.83 20.324 1045.71 20.436 1045.34 20.452C1044.97 20.452 1043.69 20.468 1042.36 20.42C1042.55 20.756 1042.78 21.316 1042.86 21.652C1044.57 21.652 1045.63 21.636 1046.23 21.428C1046.83 21.236 1047.07 20.82 1047.07 19.988V7.956Z" fill="black"/>
<path d="M1126.16 20.708C1128.36 20.708 1129.84 19.38 1129.84 17.668C1129.84 16.068 1128.88 15.188 1127.85 14.596V14.516C1128.56 13.972 1129.42 12.916 1129.42 11.684C1129.42 9.876 1128.2 8.596 1126.2 8.596C1124.38 8.596 1122.99 9.78 1122.99 11.572C1122.99 12.804 1123.71 13.684 1124.57 14.276V14.356C1123.5 14.932 1122.41 16.02 1122.41 17.588C1122.41 19.396 1124 20.708 1126.16 20.708ZM1126.96 14.132C1125.58 13.588 1124.32 12.98 1124.32 11.572C1124.32 10.436 1125.1 9.668 1126.19 9.668C1127.45 9.668 1128.17 10.612 1128.17 11.764C1128.17 12.628 1127.76 13.428 1126.96 14.132ZM1126.19 19.62C1124.78 19.62 1123.74 18.708 1123.74 17.46C1123.74 16.34 1124.4 15.412 1125.34 14.804C1127 15.476 1128.44 16.068 1128.44 17.636C1128.44 18.804 1127.53 19.62 1126.19 19.62ZM1135.25 15.604C1135.38 14.66 1135.43 13.748 1135.43 12.916H1142.74V15.604H1135.25ZM1142.74 9.124V11.78H1135.43V9.124H1142.74ZM1143.97 7.956H1134.23V12.852C1134.23 15.396 1133.97 18.644 1131.43 20.884C1131.67 21.06 1132.15 21.492 1132.31 21.748C1133.86 20.388 1134.66 18.58 1135.06 16.772H1142.74V19.972C1142.74 20.324 1142.61 20.436 1142.25 20.452C1141.88 20.452 1140.6 20.468 1139.27 20.42C1139.46 20.756 1139.69 21.316 1139.77 21.652C1141.48 21.652 1142.53 21.636 1143.14 21.428C1143.73 21.236 1143.97 20.82 1143.97 19.988V7.956Z" fill="black"/>
<rect x="28.5771" y="50.4766" width="201" height="46" rx="4" fill="#37995E"/>
<path d="M104.129 80.4766H105.985V76.0126H107.761C110.321 76.0126 112.193 74.8286 112.193 72.2526C112.193 69.5966 110.321 68.6846 107.697 68.6846H104.129V80.4766ZM105.985 74.5246V70.1886H107.521C109.393 70.1886 110.369 70.7006 110.369 72.2526C110.369 73.8046 109.473 74.5246 107.585 74.5246H105.985ZM117.997 80.6846C120.573 80.6846 122.141 79.1486 122.141 77.2606C122.141 75.5326 121.133 74.6686 119.741 74.0766L118.125 73.3886C117.165 73.0046 116.221 72.6206 116.221 71.5966C116.221 70.6686 117.005 70.0926 118.205 70.0926C119.245 70.0926 120.061 70.4926 120.797 71.1486L121.773 69.9646C120.877 69.0526 119.581 68.4766 118.205 68.4766C115.965 68.4766 114.333 69.8686 114.333 71.7246C114.333 73.4366 115.597 74.3326 116.733 74.8126L118.365 75.5166C119.453 75.9966 120.253 76.3326 120.253 77.4046C120.253 78.3966 119.453 79.0686 118.029 79.0686C116.893 79.0686 115.741 78.5246 114.893 77.6766L113.805 78.9566C114.877 80.0446 116.381 80.6846 117.997 80.6846ZM131.843 74.5246H133.811L133.443 74.8286C133.763 74.9406 134.099 75.0846 134.419 75.2446L131.843 75.2766V74.5246ZM127.027 73.5966V72.7646H130.387V73.5966H127.027ZM127.027 71.0526H130.387V71.8526H127.027V71.0526ZM135.315 71.0526V71.8526H131.843V71.0526H135.315ZM135.315 73.5966H131.843V72.7646H135.315V73.5966ZM138.355 77.0686H134.659V76.2046L136.051 76.1726C136.371 76.3806 136.659 76.5726 136.883 76.7646L137.763 75.9646C137.187 75.5166 136.243 74.9566 135.283 74.5246H136.771V70.0926H131.843V69.3406H137.747V68.1886H131.843V67.0686H130.387V68.1886H124.387V69.3406H130.387V70.0926H125.619V74.5246H130.387V75.2766C128.163 75.2926 126.115 75.3086 124.579 75.3086L124.627 76.4286C126.899 76.3966 130.003 76.3326 133.203 76.2526V77.0686H123.939V78.2686H127.187L126.467 78.8926C127.379 79.4846 128.467 80.3646 128.979 80.9726L130.067 80.0126C129.603 79.5006 128.707 78.7966 127.891 78.2686H133.203V80.1886C133.203 80.3806 133.139 80.4446 132.883 80.4606C132.643 80.4766 131.731 80.4766 130.851 80.4446C131.043 80.7966 131.251 81.3566 131.315 81.7246C132.547 81.7246 133.395 81.7246 133.939 81.5326C134.515 81.3246 134.659 80.9406 134.659 80.2366V78.2686H138.355V77.0686ZM152.787 70.5406H154.211V68.1886H148.451C148.243 67.8046 147.955 67.3726 147.747 67.0206L146.211 67.3726C146.339 67.6286 146.499 67.9006 146.659 68.1886H140.771V70.5406H142.147V69.4366H152.787V70.5406ZM149.363 72.2526C148.915 72.7486 148.355 73.1806 147.683 73.5006C146.739 73.3246 145.763 73.1486 144.787 72.9886C145.027 72.7486 145.283 72.5086 145.539 72.2526H149.363ZM154.355 75.2126C153.091 74.7966 151.427 74.3326 149.571 73.9166C150.211 73.4526 150.739 72.9086 151.171 72.2526H154.451V71.0686H151.795C151.891 70.8286 151.987 70.5886 152.067 70.3326L150.611 70.0286C150.483 70.3966 150.355 70.7486 150.179 71.0686H146.611C146.963 70.6686 147.267 70.2686 147.539 69.8846L146.131 69.4366C145.795 69.9646 145.395 70.5086 144.931 71.0686H140.499V72.2526H143.891C143.379 72.7806 142.883 73.3086 142.435 73.7086C143.475 73.8686 144.515 74.0606 145.523 74.2526C144.131 74.5566 142.467 74.7166 140.435 74.7966C140.643 75.1166 140.851 75.5966 140.963 76.0286C143.971 75.8366 146.291 75.5006 148.019 74.7806C150.003 75.2126 151.683 75.7086 152.915 76.1726L154.355 75.2126ZM144.099 78.1726C143.299 79.0526 141.827 79.8526 140.435 80.3326C140.803 80.5726 141.395 81.0526 141.683 81.3406C143.043 80.7326 144.643 79.7406 145.571 78.6526L144.099 78.1726ZM154.627 76.7486H148.163V75.5326H146.675V76.7486H140.355V77.9806H146.675V81.7246H148.163V77.9806H150.211L149.203 78.9086C150.611 79.5966 152.403 80.7006 153.267 81.4686L154.403 80.4126C153.475 79.6446 151.651 78.6206 150.259 77.9806H154.627V76.7486Z" fill="white"/>
<rect x="234.513" y="120.477" width="213" height="46" rx="4" fill="#37995E"/>
<path d="M323.409 140.797C323.201 140.077 322.705 138.909 322.209 138.029L321.137 138.397C321.601 139.293 322.081 140.493 322.257 141.245L323.409 140.797ZM319.201 138.685H317.585C317.425 138.205 317.201 137.597 316.993 137.133L315.745 137.357C315.905 137.757 316.097 138.253 316.241 138.685H314.449V139.853H319.201V138.685ZM312.529 141.037H311.105V139.037H312.529V141.037ZM311.105 145.517H312.529V147.501C312.049 147.613 311.553 147.709 311.105 147.789V145.517ZM312.529 144.285H311.105V142.269H312.529V144.285ZM314.353 139.037V137.709H309.233V139.037H309.985V148.013C309.649 148.077 309.361 148.109 309.073 148.157L309.361 149.437C310.305 149.229 311.409 148.973 312.529 148.733V151.757H313.681V139.037H314.353ZM315.889 148.429V147.149H317.809V148.429H315.889ZM317.809 144.877V146.109H315.889V144.877H317.809ZM322.545 143.757C322.241 144.765 321.841 145.709 321.361 146.573C321.233 145.565 321.121 144.365 321.041 143.069H323.793V141.805H320.977C320.913 140.333 320.865 138.733 320.865 137.069H319.585C319.617 138.749 319.649 140.333 319.729 141.805H318.321C318.481 141.325 318.641 140.701 318.817 140.141L317.649 139.933C317.569 140.477 317.393 141.229 317.233 141.805H316.209C316.145 141.277 315.969 140.525 315.793 139.949L314.737 140.125C314.881 140.637 315.025 141.293 315.089 141.805H314.161V143.069H319.793C319.905 145.037 320.081 146.733 320.337 148.109C319.905 148.653 319.425 149.181 318.945 149.629V143.821H314.737V150.605H315.889V149.469H317.809V149.869H318.673C318.273 150.221 317.857 150.525 317.425 150.797C317.729 151.021 318.113 151.373 318.289 151.629C319.121 151.069 319.937 150.365 320.673 149.549C321.089 150.909 321.633 151.693 322.417 151.709C322.961 151.709 323.569 151.117 323.905 148.717C323.681 148.589 323.185 148.221 322.961 147.933C322.881 149.277 322.705 150.077 322.465 150.077C322.145 150.061 321.873 149.437 321.633 148.349C322.481 147.181 323.185 145.821 323.681 144.333L322.545 143.757ZM329.841 138.781C329.265 138.221 328.049 137.549 327.105 137.149L326.273 138.253C327.217 138.701 328.417 139.453 328.961 139.997L329.841 138.781ZM329.025 142.925C328.433 142.413 327.217 141.773 326.273 141.405L325.441 142.525C326.417 142.941 327.601 143.645 328.161 144.173L329.025 142.925ZM328.129 145.517C327.425 147.373 326.449 149.453 325.761 150.701L327.137 151.517C327.873 149.981 328.705 148.077 329.345 146.365L328.129 145.517ZM331.793 139.133H340.049V137.821H330.385V142.189C330.385 144.797 330.241 148.477 328.577 151.053C328.945 151.181 329.569 151.517 329.841 151.757C331.553 149.053 331.793 144.957 331.793 142.189V139.133ZM332.033 143.773V145.005H339.953V143.773H336.641V142.061H339.393V140.845H336.641V139.469H335.265V140.845H332.673V142.061H335.265V143.773H332.033ZM336.641 149.965V148.013H339.713V146.797H336.641V145.325H335.265V146.797H332.273V148.013H335.265V149.965H331.281V151.245H340.177V149.965H336.641ZM349.857 144.525H351.825L351.457 144.829C351.777 144.941 352.113 145.085 352.433 145.245L349.857 145.277V144.525ZM345.041 143.597V142.765H348.401V143.597H345.041ZM345.041 141.053H348.401V141.853H345.041V141.053ZM353.329 141.053V141.853H349.857V141.053H353.329ZM353.329 143.597H349.857V142.765H353.329V143.597ZM356.369 147.069H352.673V146.205L354.065 146.173C354.385 146.381 354.673 146.573 354.897 146.765L355.777 145.965C355.201 145.517 354.257 144.957 353.297 144.525H354.785V140.093H349.857V139.341H355.761V138.189H349.857V137.069H348.401V138.189H342.401V139.341H348.401V140.093H343.633V144.525H348.401V145.277C346.177 145.293 344.129 145.309 342.593 145.309L342.641 146.429C344.913 146.397 348.017 146.333 351.217 146.253V147.069H341.953V148.269H345.201L344.481 148.893C345.393 149.485 346.481 150.365 346.993 150.973L348.081 150.013C347.617 149.501 346.721 148.797 345.905 148.269H351.217V150.189C351.217 150.381 351.153 150.445 350.897 150.461C350.657 150.477 349.745 150.477 348.865 150.445C349.057 150.797 349.265 151.357 349.329 151.725C350.561 151.725 351.409 151.725 351.953 151.533C352.529 151.325 352.673 150.941 352.673 150.237V148.269H356.369V147.069ZM370.801 140.541H372.225V138.189H366.465C366.257 137.805 365.969 137.373 365.761 137.021L364.225 137.373C364.353 137.629 364.513 137.901 364.673 138.189H358.785V140.541H360.161V139.437H370.801V140.541ZM367.377 142.253C366.929 142.749 366.369 143.181 365.697 143.501C364.753 143.325 363.777 143.149 362.801 142.989C363.041 142.749 363.297 142.509 363.553 142.253H367.377ZM372.369 145.213C371.105 144.797 369.441 144.333 367.585 143.917C368.225 143.453 368.753 142.909 369.185 142.253H372.465V141.069H369.809C369.905 140.829 370.001 140.589 370.081 140.333L368.625 140.029C368.497 140.397 368.369 140.749 368.193 141.069H364.625C364.977 140.669 365.281 140.269 365.553 139.885L364.145 139.437C363.809 139.965 363.409 140.509 362.945 141.069H358.513V142.253H361.905C361.393 142.781 360.897 143.309 360.449 143.709C361.489 143.869 362.529 144.061 363.537 144.253C362.145 144.557 360.481 144.717 358.449 144.797C358.657 145.117 358.865 145.597 358.977 146.029C361.985 145.837 364.305 145.501 366.033 144.781C368.017 145.213 369.697 145.709 370.929 146.173L372.369 145.213ZM362.113 148.173C361.313 149.053 359.841 149.853 358.449 150.333C358.817 150.573 359.409 151.053 359.697 151.341C361.057 150.733 362.657 149.741 363.585 148.653L362.113 148.173ZM372.641 146.749H366.177V145.533H364.689V146.749H358.369V147.981H364.689V151.725H366.177V147.981H368.225L367.217 148.909C368.625 149.597 370.417 150.701 371.281 151.469L372.417 150.413C371.489 149.645 369.665 148.621 368.273 147.981H372.641V146.749Z" fill="white"/>
<rect x="344.513" y="183.477" width="527" height="46" rx="4" fill="#37995E"/>
<path d="M581.129 206.853L579.513 207.333V204.549H581.353V203.173H579.513V200.085H578.073V203.173H576.233V204.549H578.073V207.733C577.289 207.957 576.585 208.165 576.009 208.309L576.345 209.749L578.073 209.205V213.029C578.073 213.253 577.993 213.317 577.785 213.317C577.609 213.317 577.001 213.317 576.377 213.301C576.569 213.701 576.761 214.357 576.809 214.741C577.817 214.757 578.473 214.693 578.921 214.437C579.353 214.213 579.513 213.797 579.513 213.029V208.773C580.121 208.581 580.745 208.389 581.337 208.197L581.129 206.853ZM588.585 209.477V212.661H583.689V209.477H588.585ZM582.249 214.725H583.689V214.005H588.585V214.661H590.073V208.149H582.249V214.725ZM581.785 200.837V202.181H584.297C584.041 204.053 583.401 205.621 581.241 206.533C581.577 206.789 581.977 207.333 582.153 207.701C584.697 206.533 585.481 204.565 585.801 202.181H588.809C588.681 204.549 588.537 205.525 588.297 205.781C588.169 205.925 588.025 205.957 587.785 205.957C587.529 205.957 586.905 205.957 586.249 205.893C586.473 206.277 586.649 206.869 586.665 207.301C587.385 207.317 588.105 207.317 588.489 207.269C588.953 207.221 589.257 207.093 589.545 206.741C589.961 206.261 590.121 204.901 590.281 201.429C590.297 201.237 590.297 200.837 590.297 200.837H581.785ZM600.633 212.805V209.125H605.609V207.701H600.633V204.501H606.201V203.045H600.633V200.069H599.097V203.045H596.201C596.505 202.277 596.793 201.461 597.033 200.645L595.497 200.293C594.905 202.533 593.897 204.725 592.601 206.085C593.001 206.293 593.657 206.725 593.961 206.981C594.521 206.309 595.049 205.461 595.545 204.501H599.097V207.701H594.537V209.125H599.097V212.805H592.761V214.245H606.969V212.805H600.633ZM616.857 207.525H618.825L618.457 207.829C618.777 207.941 619.113 208.085 619.433 208.245L616.857 208.277V207.525ZM612.041 206.597V205.765H615.401V206.597H612.041ZM612.041 204.053H615.401V204.853H612.041V204.053ZM620.329 204.053V204.853H616.857V204.053H620.329ZM620.329 206.597H616.857V205.765H620.329V206.597ZM623.369 210.069H619.673V209.205L621.065 209.173C621.385 209.381 621.673 209.573 621.897 209.765L622.777 208.965C622.201 208.517 621.257 207.957 620.297 207.525H621.785V203.093H616.857V202.341H622.761V201.189H616.857V200.069H615.401V201.189H609.401V202.341H615.401V203.093H610.633V207.525H615.401V208.277C613.177 208.293 611.129 208.309 609.593 208.309L609.641 209.429C611.913 209.397 615.017 209.333 618.217 209.253V210.069H608.953V211.269H612.201L611.481 211.893C612.393 212.485 613.481 213.365 613.993 213.973L615.081 213.013C614.617 212.501 613.721 211.797 612.905 211.269H618.217V213.189C618.217 213.381 618.153 213.445 617.897 213.461C617.657 213.477 616.745 213.477 615.865 213.445C616.057 213.797 616.265 214.357 616.329 214.725C617.561 214.725 618.409 214.725 618.953 214.533C619.529 214.325 619.673 213.941 619.673 213.237V211.269H623.369V210.069ZM637.801 203.541H639.225V201.189H633.465C633.257 200.805 632.969 200.373 632.761 200.021L631.225 200.373C631.353 200.629 631.513 200.901 631.673 201.189H625.785V203.541H627.161V202.437H637.801V203.541ZM634.377 205.253C633.929 205.749 633.369 206.181 632.697 206.501C631.753 206.325 630.777 206.149 629.801 205.989C630.041 205.749 630.297 205.509 630.553 205.253H634.377ZM639.369 208.213C638.105 207.797 636.441 207.333 634.585 206.917C635.225 206.453 635.753 205.909 636.185 205.253H639.465V204.069H636.809C636.905 203.829 637.001 203.589 637.081 203.333L635.625 203.029C635.497 203.397 635.369 203.749 635.193 204.069H631.625C631.977 203.669 632.281 203.269 632.553 202.885L631.145 202.437C630.809 202.965 630.409 203.509 629.945 204.069H625.513V205.253H628.905C628.393 205.781 627.897 206.309 627.449 206.709C628.489 206.869 629.529 207.061 630.537 207.253C629.145 207.557 627.481 207.717 625.449 207.797C625.657 208.117 625.865 208.597 625.977 209.029C628.985 208.837 631.305 208.501 633.033 207.781C635.017 208.213 636.697 208.709 637.929 209.173L639.369 208.213ZM629.113 211.173C628.313 212.053 626.841 212.853 625.449 213.333C625.817 213.573 626.409 214.053 626.697 214.341C628.057 213.733 629.657 212.741 630.585 211.653L629.113 211.173ZM639.641 209.749H633.177V208.533H631.689V209.749H625.369V210.981H631.689V214.725H633.177V210.981H635.225L634.217 211.909C635.625 212.597 637.417 213.701 638.281 214.469L639.417 213.413C638.489 212.645 636.665 211.621 635.273 210.981H639.641V209.749Z" fill="white"/>
</svg>
