<svg width="31" height="17" viewBox="0 0 31 17" fill="none" xmlns="http://www.w3.org/2000/svg">
<path d="M0.5 8.59375C0.5 4.03375 4.19 0.34375 8.75 0.34375H24.5C27.815 0.34375 30.5 3.02875 30.5 6.34375C30.5 9.65875 27.815 12.3438 24.5 12.3438H11.75C9.68 12.3438 8 10.6637 8 8.59375C8 6.52375 9.68 4.84375 11.75 4.84375H23V7.84375H11.615C10.79 7.84375 10.79 9.34375 11.615 9.34375H24.5C26.15 9.34375 27.5 7.99375 27.5 6.34375C27.5 4.69375 26.15 3.34375 24.5 3.34375H8.75C5.855 3.34375 3.5 5.69875 3.5 8.59375C3.5 11.4887 5.855 13.8438 8.75 13.8438H23V16.8438H8.75C4.19 16.8438 0.5 13.1537 0.5 8.59375Z" fill="#003816"/>
</svg>
