<svg width="37" height="37" viewBox="0 0 37 37" fill="none" xmlns="http://www.w3.org/2000/svg">
<path d="M3.51807 19.5938C3.51807 15.0338 7.20807 11.3438 11.7681 11.3438H27.5181C30.8331 11.3438 33.5181 14.0287 33.5181 17.3438C33.5181 20.6588 30.8331 23.3438 27.5181 23.3438H14.7681C12.6981 23.3438 11.0181 21.6637 11.0181 19.5938C11.0181 17.5237 12.6981 15.8438 14.7681 15.8438H26.0181V18.8438H14.6331C13.8081 18.8438 13.8081 20.3438 14.6331 20.3438H27.5181C29.1681 20.3438 30.5181 18.9938 30.5181 17.3438C30.5181 15.6937 29.1681 14.3438 27.5181 14.3438H11.7681C8.87307 14.3438 6.51807 16.6988 6.51807 19.5938C6.51807 22.4887 8.87307 24.8438 11.7681 24.8438H26.0181V27.8438H11.7681C7.20807 27.8438 3.51807 24.1537 3.51807 19.5938Z" fill="#E9E9E9"/>
</svg>
