<svg width="31" height="28" viewBox="0 0 31 28" fill="none" xmlns="http://www.w3.org/2000/svg">
<path d="M12.0181 12.8438C15.3318 12.8438 18.0181 10.1575 18.0181 6.84375C18.0181 3.53004 15.3318 0.84375 12.0181 0.84375C8.70436 0.84375 6.01807 3.53004 6.01807 6.84375C6.01807 10.1575 8.70436 12.8438 12.0181 12.8438Z" fill="#E9E9E9"/>
<path d="M12.5431 15.8588C8.44807 15.7088 0.0180664 17.7488 0.0180664 21.8438V24.8438H14.3281C10.6231 20.7038 12.4831 16.0088 12.5431 15.8588Z" fill="#E9E9E9"/>
<path d="M26.1631 21.8738C26.7031 20.9888 27.0181 19.9538 27.0181 18.8438C27.0181 15.5287 24.3331 12.8438 21.0181 12.8438C17.7031 12.8438 15.0181 15.5287 15.0181 18.8438C15.0181 22.1588 17.7031 24.8438 21.0181 24.8438C22.1281 24.8438 23.1631 24.5138 24.0481 23.9888L27.9031 27.8438L30.0181 25.7288L26.1631 21.8738ZM21.0181 21.8438C19.3681 21.8438 18.0181 20.4938 18.0181 18.8438C18.0181 17.1937 19.3681 15.8438 21.0181 15.8438C22.6681 15.8438 24.0181 17.1937 24.0181 18.8438C24.0181 20.4938 22.6681 21.8438 21.0181 21.8438Z" fill="#E9E9E9"/>
</svg>
