<svg width="60" height="61" viewBox="0 0 60 61" fill="none" xmlns="http://www.w3.org/2000/svg">
<rect x="0.5" y="1.34375" width="59" height="59" rx="29.5" fill="white"/>
<path d="M27 30.8438C30.3137 30.8438 33 28.1575 33 24.8438C33 21.53 30.3137 18.8438 27 18.8438C23.6863 18.8438 21 21.53 21 24.8438C21 28.1575 23.6863 30.8438 27 30.8438Z" fill="#003816"/>
<path d="M27.525 33.8588C23.43 33.7088 15 35.7488 15 39.8438V42.8438H29.31C25.605 38.7038 27.465 34.0088 27.525 33.8588Z" fill="#003816"/>
<path d="M41.145 39.8738C41.685 38.9888 42 37.9538 42 36.8438C42 33.5287 39.315 30.8438 36 30.8438C32.685 30.8438 30 33.5287 30 36.8438C30 40.1588 32.685 42.8438 36 42.8438C37.11 42.8438 38.145 42.5138 39.03 41.9888L42.885 45.8438L45 43.7288L41.145 39.8738ZM36 39.8438C34.35 39.8438 33 38.4937 33 36.8438C33 35.1938 34.35 33.8438 36 33.8438C37.65 33.8438 39 35.1938 39 36.8438C39 38.4937 37.65 39.8438 36 39.8438Z" fill="#003816"/>
<rect x="0.5" y="1.34375" width="59" height="59" rx="29.5" stroke="#003816"/>
</svg>
