<svg width="21" height="19" viewBox="0 0 21 19" fill="none" xmlns="http://www.w3.org/2000/svg">
<path d="M8.71289 8.84375C10.922 8.84375 12.7129 7.05289 12.7129 4.84375C12.7129 2.63461 10.922 0.84375 8.71289 0.84375C6.50375 0.84375 4.71289 2.63461 4.71289 4.84375C4.71289 7.05289 6.50375 8.84375 8.71289 8.84375Z" fill="#003816"/>
<path d="M9.06289 10.8538C6.33289 10.7538 0.712891 12.1138 0.712891 14.8438V16.8438H10.2529C7.78289 14.0838 9.02289 10.9538 9.06289 10.8538Z" fill="#003816"/>
<path d="M18.1429 14.8638C18.5029 14.2738 18.7129 13.5837 18.7129 12.8438C18.7129 10.6337 16.9229 8.84375 14.7129 8.84375C12.5029 8.84375 10.7129 10.6337 10.7129 12.8438C10.7129 15.0538 12.5029 16.8438 14.7129 16.8438C15.4529 16.8438 16.1429 16.6238 16.7329 16.2738L19.3029 18.8438L20.7129 17.4338L18.1429 14.8638ZM14.7129 14.8438C13.6129 14.8438 12.7129 13.9438 12.7129 12.8438C12.7129 11.7437 13.6129 10.8438 14.7129 10.8438C15.8129 10.8438 16.7129 11.7437 16.7129 12.8438C16.7129 13.9438 15.8129 14.8438 14.7129 14.8438Z" fill="#003816"/>
</svg>
