<svg width="37" height="37" viewBox="0 0 37 37" fill="none" xmlns="http://www.w3.org/2000/svg">
<path d="M29.0181 6.34375H22.7481C22.1181 4.60375 20.4681 3.34375 18.5181 3.34375C16.5681 3.34375 14.9181 4.60375 14.2881 6.34375H8.01807C6.36807 6.34375 5.01807 7.69375 5.01807 9.34375V30.3438C5.01807 31.9937 6.36807 33.3438 8.01807 33.3438H29.0181C30.6681 33.3438 32.0181 31.9937 32.0181 30.3438V9.34375C32.0181 7.69375 30.6681 6.34375 29.0181 6.34375ZM18.5181 6.34375C19.3431 6.34375 20.0181 7.01875 20.0181 7.84375C20.0181 8.66875 19.3431 9.34375 18.5181 9.34375C17.6931 9.34375 17.0181 8.66875 17.0181 7.84375C17.0181 7.01875 17.6931 6.34375 18.5181 6.34375ZM18.5181 12.3438C21.0081 12.3438 23.0181 14.3538 23.0181 16.8438C23.0181 19.3337 21.0081 21.3438 18.5181 21.3438C16.0281 21.3438 14.0181 19.3337 14.0181 16.8438C14.0181 14.3538 16.0281 12.3438 18.5181 12.3438ZM27.5181 30.3438H9.51807V28.2438C9.51807 25.2438 15.5181 23.5938 18.5181 23.5938C21.5181 23.5938 27.5181 25.2438 27.5181 28.2438V30.3438Z" fill="#E9E9E9"/>
</svg>
