<svg width="31" height="31" viewBox="0 0 31 31" fill="none" xmlns="http://www.w3.org/2000/svg">
<path d="M15.5181 0.84375C7.23807 0.84375 0.518066 7.56375 0.518066 15.8438C0.518066 24.1237 7.23807 30.8438 15.5181 30.8438C23.7981 30.8438 30.5181 24.1237 30.5181 15.8438C30.5181 7.56375 23.7981 0.84375 15.5181 0.84375ZM16.8381 24.4838V26.3438H14.2131V24.4087C13.1031 24.1387 10.6281 23.2538 9.68307 19.9688L12.1581 18.9637C12.2481 19.2937 13.0281 22.0988 15.7581 22.0988C17.1531 22.0988 18.7281 21.3788 18.7281 19.6838C18.7281 18.2438 17.6781 17.4937 15.3081 16.6387C13.6581 16.0537 10.2831 15.0938 10.2831 11.6738C10.2831 11.5238 10.2981 8.07375 14.2131 7.23375V5.34375H16.8381V7.20375C19.5981 7.68375 20.6031 9.88875 20.8281 10.5488L18.4581 11.5538C18.2931 11.0288 17.5731 9.54375 15.6081 9.54375C14.5581 9.54375 12.8931 10.0987 12.8931 11.6287C12.8931 13.0537 14.1831 13.5938 16.8531 14.4788C20.4531 15.7238 21.3681 17.5537 21.3681 19.6537C21.3681 23.5988 17.6181 24.3488 16.8381 24.4838Z" fill="#E9E9E9"/>
</svg>
