<svg width="37" height="37" viewBox="0 0 37 37" fill="none" xmlns="http://www.w3.org/2000/svg">
<path d="M18.5 3.84375C10.22 3.84375 3.5 10.5638 3.5 18.8438C3.5 27.1238 10.22 33.8438 18.5 33.8438C26.78 33.8438 33.5 27.1238 33.5 18.8438C33.5 10.5638 26.78 3.84375 18.5 3.84375ZM19.82 27.4837V29.3438H17.195V27.4087C16.085 27.1387 13.61 26.2537 12.665 22.9688L15.14 21.9637C15.23 22.2938 16.01 25.0988 18.74 25.0988C20.135 25.0988 21.71 24.3787 21.71 22.6838C21.71 21.2438 20.66 20.4937 18.29 19.6388C16.64 19.0538 13.265 18.0938 13.265 14.6737C13.265 14.5238 13.28 11.0738 17.195 10.2338V8.34375H19.82V10.2037C22.58 10.6837 23.585 12.8888 23.81 13.5487L21.44 14.5538C21.275 14.0288 20.555 12.5438 18.59 12.5438C17.54 12.5438 15.875 13.0987 15.875 14.6287C15.875 16.0537 17.165 16.5938 19.835 17.4788C23.435 18.7238 24.35 20.5537 24.35 22.6537C24.35 26.5988 20.6 27.3488 19.82 27.4837Z" fill="#003816"/>
</svg>
