<svg width="61" height="61" viewBox="0 0 61 61" fill="none" xmlns="http://www.w3.org/2000/svg">
<path fill-rule="evenodd" clip-rule="evenodd" d="M40.7808 10.7999C40.9745 10.6031 40.9745 10.2839 40.7808 10.0871C40.5872 9.89024 40.2732 9.89024 40.0795 10.0871L20.2204 30.2715C20.2199 30.2719 20.2195 30.2724 20.219 30.2729C20.1221 30.3713 20.0737 30.5003 20.0737 30.6293C20.0737 30.6309 20.0737 30.6325 20.0738 30.6341C20.0749 30.7615 20.1233 30.8885 20.219 30.9857C20.2194 30.9861 20.2198 30.9865 20.2201 30.9869L40.0795 51.1716C40.2732 51.3684 40.5872 51.3684 40.7808 51.1716C40.9745 50.9747 40.9745 50.6556 40.7808 50.4587L21.271 30.6293L40.7808 10.7999Z" fill="#B7B7B7"/>
<path d="M40.7808 10.0871L40.4244 10.4378L40.7808 10.0871ZM40.7808 10.7999L40.4244 10.4492V10.4492L40.7808 10.7999ZM40.0795 10.0871L39.7231 9.73641V9.73641L40.0795 10.0871ZM20.2204 30.2715L20.5755 30.6235L20.5768 30.6221L20.2204 30.2715ZM20.219 30.2729L19.8627 29.9222L19.8626 29.9222L20.219 30.2729ZM20.0737 30.6293L20.5737 30.6293L20.0737 30.6293ZM20.0738 30.6341L20.5737 30.6295V30.6295L20.0738 30.6341ZM20.219 30.9857L19.8626 31.3364L19.8627 31.3365L20.219 30.9857ZM20.2201 30.9869L20.5766 30.6362L20.5752 30.6348L20.2201 30.9869ZM40.0795 51.1716L39.7231 51.5222L40.0795 51.1716ZM40.7808 50.4587L40.4244 50.8094L40.7808 50.4587ZM21.271 30.6293L20.9146 30.2787L20.5696 30.6293L20.9146 30.98L21.271 30.6293ZM40.4244 10.4378C40.4251 10.4384 40.4252 10.4387 40.4254 10.4391C40.4257 10.4399 40.4261 10.4414 40.4261 10.4435C40.4261 10.4456 40.4257 10.4471 40.4254 10.4479C40.4252 10.4483 40.4251 10.4486 40.4244 10.4492L41.1372 11.1506C41.5224 10.7592 41.5224 10.1278 41.1372 9.73641L40.4244 10.4378ZM40.4359 10.4378C40.4365 10.4371 40.4359 10.4379 40.4341 10.4386C40.4326 10.4392 40.4313 10.4395 40.4302 10.4395C40.4291 10.4395 40.4277 10.4392 40.4262 10.4386C40.4244 10.4379 40.4238 10.4371 40.4244 10.4378L41.1372 9.73641C40.7477 9.34047 40.1126 9.34047 39.7231 9.73641L40.4359 10.4378ZM20.5768 30.6221L40.4359 10.4378L39.7231 9.73641L19.864 29.9208L20.5768 30.6221ZM19.8653 29.9195C19.8641 29.9207 19.8631 29.9217 19.8628 29.922C19.8621 29.9227 19.8625 29.9223 19.8627 29.9222L20.5753 30.6237L20.5755 30.6235L19.8653 29.9195ZM20.5737 30.6293C20.5737 30.6272 20.5741 30.6257 20.5744 30.6249C20.5746 30.6245 20.5747 30.6243 20.5754 30.6236L19.8626 29.9222C19.6692 30.1188 19.5737 30.3757 19.5737 30.6293L20.5737 30.6293ZM20.5737 30.6295C20.5737 30.6294 20.5737 30.6294 20.5737 30.6293L19.5737 30.6293C19.5737 30.6324 19.5737 30.6356 19.5738 30.6387L20.5737 30.6295ZM20.5754 30.6351C20.5747 30.6344 20.5746 30.6341 20.5745 30.6337C20.5742 30.633 20.5738 30.6315 20.5737 30.6295L19.5738 30.6387C19.5761 30.8892 19.6716 31.1423 19.8626 31.3364L20.5754 30.6351ZM20.5752 30.6348L20.5753 30.635L19.8627 31.3365C19.8631 31.337 19.8641 31.3379 19.8651 31.339L20.5752 30.6348ZM19.8637 31.3376L39.7231 51.5222L40.4359 50.8209L20.5766 30.6362L19.8637 31.3376ZM39.7231 51.5222C40.1126 51.9182 40.7477 51.9182 41.1372 51.5222L40.4244 50.8209C40.4238 50.8215 40.4244 50.8208 40.4262 50.82C40.4277 50.8194 40.4291 50.8192 40.4302 50.8192C40.4313 50.8192 40.4326 50.8194 40.4341 50.82C40.4359 50.8208 40.4365 50.8215 40.4359 50.8209L39.7231 51.5222ZM41.1372 51.5222C41.5224 51.1308 41.5224 50.4995 41.1372 50.1081L40.4244 50.8094C40.4251 50.8101 40.4252 50.8104 40.4254 50.8108C40.4257 50.8115 40.4261 50.813 40.4261 50.8152C40.4261 50.8173 40.4257 50.8188 40.4254 50.8195C40.4252 50.8199 40.4251 50.8202 40.4244 50.8209L41.1372 51.5222ZM41.1372 50.1081L21.6274 30.2787L20.9146 30.98L40.4244 50.8094L41.1372 50.1081ZM40.4244 10.4492L20.9146 30.2787L21.6274 30.98L41.1372 11.1506L40.4244 10.4492Z" fill="#B7B7B7"/>
</svg>
