<svg width="61" height="60" viewBox="0 0 61 60" fill="none" xmlns="http://www.w3.org/2000/svg">
<path fill-rule="evenodd" clip-rule="evenodd" d="M50.0238 19.7187C50.2207 19.525 50.5398 19.525 50.7366 19.7187C50.9335 19.9123 50.9335 20.2263 50.7366 20.42L30.5523 40.2791C30.5518 40.2796 30.5513 40.2801 30.5508 40.2805C30.4524 40.3774 30.3234 40.4258 30.1944 40.4258C30.1928 40.4258 30.1912 40.4258 30.1897 40.4258C30.0623 40.4246 29.9352 40.3762 29.838 40.2805C29.8376 40.2801 29.8372 40.2798 29.8368 40.2794L9.65217 20.42C9.45533 20.2263 9.45533 19.9123 9.65217 19.7187C9.84901 19.525 10.1682 19.525 10.365 19.7187L30.1944 39.2285L50.0238 19.7187Z" fill="#333333"/>
<path d="M50.7366 19.7187L50.386 20.0751L50.7366 19.7187ZM50.0238 19.7187L50.3745 20.0751L50.3745 20.0751L50.0238 19.7187ZM50.7366 20.42L51.0873 20.7764L51.0873 20.7764L50.7366 20.42ZM30.5523 40.2791L30.2003 39.924L30.2016 39.9227L30.5523 40.2791ZM30.5508 40.2805L30.9016 40.6369L30.9015 40.6369L30.5508 40.2805ZM30.1944 40.4258L30.1944 39.9258L30.1944 40.4258ZM30.1897 40.4258L30.1943 39.9258L30.1943 39.9258L30.1897 40.4258ZM29.838 40.2805L29.4873 40.6369L29.4872 40.6369L29.838 40.2805ZM29.8368 40.2794L30.1875 39.923L30.1889 39.9243L29.8368 40.2794ZM9.65217 20.42L9.3015 20.7764L9.65217 20.42ZM10.365 19.7187L10.0143 20.0751L10.365 19.7187ZM30.1944 39.2285L30.5451 39.5849L30.1944 39.9299L29.8437 39.5849L30.1944 39.2285ZM50.386 20.0751C50.3853 20.0744 50.385 20.0743 50.3846 20.0741C50.3839 20.0738 50.3823 20.0734 50.3802 20.0734C50.3781 20.0734 50.3766 20.0738 50.3758 20.0741C50.3754 20.0743 50.3752 20.0744 50.3745 20.0751L49.6731 19.3623C50.0646 18.9771 50.6959 18.9771 51.0873 19.3623L50.386 20.0751ZM50.386 20.0636C50.3866 20.063 50.3858 20.0636 50.3851 20.0654C50.3845 20.0669 50.3843 20.0682 50.3843 20.0693C50.3843 20.0705 50.3845 20.0718 50.3851 20.0733C50.3858 20.0751 50.3866 20.0757 50.386 20.0751L51.0873 19.3623C51.4833 19.7518 51.4833 20.3869 51.0873 20.7764L50.386 20.0636ZM30.2016 39.9227L50.386 20.0636L51.0873 20.7764L30.9029 40.6355L30.2016 39.9227ZM30.9043 40.6342C30.9031 40.6354 30.9021 40.6364 30.9017 40.6367C30.901 40.6374 30.9014 40.637 30.9016 40.6369L30.2001 39.9242L30.2003 39.924L30.9043 40.6342ZM30.1944 39.9258C30.1965 39.9258 30.198 39.9254 30.1988 39.9251C30.1992 39.9249 30.1995 39.9248 30.2001 39.9241L30.9015 40.6369C30.705 40.8303 30.448 40.9258 30.1944 40.9258L30.1944 39.9258ZM30.1943 39.9258C30.1943 39.9258 30.1944 39.9258 30.1944 39.9258L30.1944 40.9258C30.1913 40.9258 30.1882 40.9258 30.1851 40.9257L30.1943 39.9258ZM30.1887 39.9241C30.1893 39.9248 30.1896 39.9249 30.19 39.9251C30.1907 39.9253 30.1922 39.9258 30.1943 39.9258L30.1851 40.9257C29.9345 40.9234 29.6814 40.8279 29.4873 40.6369L30.1887 39.9241ZM30.1889 39.9243L30.1888 39.9242L29.4872 40.6369C29.4867 40.6364 29.4858 40.6355 29.4847 40.6344L30.1889 39.9243ZM29.4861 40.6358L9.3015 20.7764L10.0028 20.0636L30.1875 39.923L29.4861 40.6358ZM9.3015 20.7764C8.90555 20.3869 8.90555 19.7518 9.3015 19.3623L10.0028 20.0751C10.0022 20.0757 10.003 20.0751 10.0037 20.0733C10.0043 20.0718 10.0045 20.0705 10.0045 20.0693C10.0045 20.0682 10.0043 20.0669 10.0037 20.0654C10.003 20.0636 10.0022 20.063 10.0028 20.0636L9.3015 20.7764ZM9.3015 19.3623C9.69292 18.9771 10.3242 18.9771 10.7157 19.3623L10.0143 20.0751C10.0136 20.0744 10.0134 20.0743 10.013 20.0741C10.0122 20.0738 10.0107 20.0734 10.0086 20.0734C10.0065 20.0734 10.0049 20.0738 10.0042 20.0741C10.0038 20.0743 10.0035 20.0744 10.0028 20.0751L9.3015 19.3623ZM10.7157 19.3623L30.5451 38.8721L29.8437 39.5849L10.0143 20.0751L10.7157 19.3623ZM50.3745 20.0751L30.5451 39.5849L29.8437 38.8721L49.6731 19.3623L50.3745 20.0751Z" fill="#333333"/>
</svg>
