<svg width="25" height="24" viewBox="0 0 25 24" fill="none" xmlns="http://www.w3.org/2000/svg">
<path d="M18.9881 14.2074C19.3818 14.5948 19.3869 15.2279 18.9996 15.6216C18.6123 16.0153 17.9791 16.0204 17.5854 15.6331L18.9881 14.2074ZM11.7511 9.89279C11.3574 9.50545 11.3523 8.8723 11.7396 8.47862C12.127 8.08493 12.7601 8.07979 13.1538 8.46713L11.7511 9.89279ZM7.3195 15.6328C6.92582 16.0201 6.29268 16.015 5.90534 15.6213C5.518 15.2276 5.52314 14.5945 5.91682 14.2072L7.3195 15.6328ZM11.7511 8.46686C12.1448 8.07953 12.778 8.08467 13.1653 8.47835C13.5526 8.87204 13.5475 9.50518 13.1538 9.89252L11.7511 8.46686ZM17.5854 15.6331L11.7511 9.89279L13.1538 8.46713L18.9881 14.2074L17.5854 15.6331ZM5.91682 14.2072L11.7511 8.46686L13.1538 9.89252L7.3195 15.6328L5.91682 14.2072Z" fill="#003816"/>
</svg>
