<svg width="61" height="61" viewBox="0 0 61 61" fill="none" xmlns="http://www.w3.org/2000/svg">
<path fill-rule="evenodd" clip-rule="evenodd" d="M20.2192 10.7999C20.0255 10.6031 20.0255 10.2839 20.2192 10.0871C20.4128 9.89024 20.7268 9.89024 20.9205 10.0871L40.7796 30.2715C40.7801 30.2719 40.7805 30.2724 40.781 30.2729C40.8779 30.3713 40.9263 30.5003 40.9263 30.6293C40.9263 30.6309 40.9263 30.6325 40.9262 30.6341C40.9251 30.7615 40.8767 30.8885 40.781 30.9857C40.7806 30.9861 40.7802 30.9865 40.7799 30.9869L20.9205 51.1716C20.7268 51.3684 20.4128 51.3684 20.2192 51.1716C20.0255 50.9747 20.0255 50.6556 20.2192 50.4587L39.729 30.6293L20.2192 10.7999Z" fill="#B7B7B7"/>
<path d="M20.2192 10.0871L20.5756 10.4378L20.2192 10.0871ZM20.2192 10.7999L20.5756 10.4492V10.4492L20.2192 10.7999ZM20.9205 10.0871L21.2769 9.73641V9.73641L20.9205 10.0871ZM40.7796 30.2715L40.4245 30.6235L40.4232 30.6221L40.7796 30.2715ZM40.781 30.2729L41.1373 29.9222L41.1374 29.9222L40.781 30.2729ZM40.9263 30.6293L40.4263 30.6293L40.9263 30.6293ZM40.9262 30.6341L40.4263 30.6295V30.6295L40.9262 30.6341ZM40.781 30.9857L41.1374 31.3364L41.1373 31.3365L40.781 30.9857ZM40.7799 30.9869L40.4234 30.6362L40.4248 30.6348L40.7799 30.9869ZM20.9205 51.1716L21.2769 51.5222L20.9205 51.1716ZM20.2192 50.4587L20.5756 50.8094L20.2192 50.4587ZM39.729 30.6293L40.0854 30.2787L40.4304 30.6293L40.0854 30.98L39.729 30.6293ZM20.5756 10.4378C20.5749 10.4384 20.5748 10.4387 20.5746 10.4391C20.5743 10.4399 20.5739 10.4414 20.5739 10.4435C20.5739 10.4456 20.5743 10.4471 20.5746 10.4479C20.5748 10.4483 20.5749 10.4486 20.5756 10.4492L19.8628 11.1506C19.4776 10.7592 19.4776 10.1278 19.8628 9.73641L20.5756 10.4378ZM20.5641 10.4378C20.5635 10.4371 20.5641 10.4379 20.5659 10.4386C20.5674 10.4392 20.5687 10.4395 20.5698 10.4395C20.5709 10.4395 20.5723 10.4392 20.5738 10.4386C20.5756 10.4379 20.5762 10.4371 20.5756 10.4378L19.8628 9.73641C20.2523 9.34047 20.8874 9.34047 21.2769 9.73641L20.5641 10.4378ZM40.4232 30.6221L20.5641 10.4378L21.2769 9.73641L41.136 29.9208L40.4232 30.6221ZM41.1347 29.9195C41.1359 29.9207 41.1369 29.9217 41.1372 29.922C41.1379 29.9227 41.1375 29.9223 41.1373 29.9222L40.4247 30.6237L40.4245 30.6235L41.1347 29.9195ZM40.4263 30.6293C40.4263 30.6272 40.4259 30.6257 40.4256 30.6249C40.4254 30.6245 40.4253 30.6243 40.4246 30.6236L41.1374 29.9222C41.3308 30.1188 41.4263 30.3757 41.4263 30.6293L40.4263 30.6293ZM40.4263 30.6295C40.4263 30.6294 40.4263 30.6294 40.4263 30.6293L41.4263 30.6293C41.4263 30.6324 41.4263 30.6356 41.4262 30.6387L40.4263 30.6295ZM40.4246 30.6351C40.4253 30.6344 40.4254 30.6341 40.4255 30.6337C40.4258 30.633 40.4262 30.6315 40.4263 30.6295L41.4262 30.6387C41.4239 30.8892 41.3284 31.1423 41.1374 31.3364L40.4246 30.6351ZM40.4248 30.6348L40.4247 30.635L41.1373 31.3365C41.1369 31.337 41.1359 31.3379 41.1349 31.339L40.4248 30.6348ZM41.1363 31.3376L21.2769 51.5222L20.5641 50.8209L40.4234 30.6362L41.1363 31.3376ZM21.2769 51.5222C20.8874 51.9182 20.2523 51.9182 19.8628 51.5222L20.5756 50.8209C20.5762 50.8215 20.5756 50.8208 20.5738 50.82C20.5723 50.8194 20.5709 50.8192 20.5698 50.8192C20.5687 50.8192 20.5674 50.8194 20.5659 50.82C20.5641 50.8208 20.5635 50.8215 20.5641 50.8209L21.2769 51.5222ZM19.8628 51.5222C19.4776 51.1308 19.4776 50.4995 19.8628 50.1081L20.5756 50.8094C20.5749 50.8101 20.5748 50.8104 20.5746 50.8108C20.5743 50.8115 20.5739 50.813 20.5739 50.8152C20.5739 50.8173 20.5743 50.8188 20.5746 50.8195C20.5748 50.8199 20.5749 50.8202 20.5756 50.8209L19.8628 51.5222ZM19.8628 50.1081L39.3726 30.2787L40.0854 30.98L20.5756 50.8094L19.8628 50.1081ZM20.5756 10.4492L40.0854 30.2787L39.3726 30.98L19.8628 11.1506L20.5756 10.4492Z" fill="#B7B7B7"/>
</svg>
