<svg width="49" height="28" viewBox="0 0 49 28" fill="none" xmlns="http://www.w3.org/2000/svg">
<path d="M22.2397 23.2578C22.2397 23.8101 21.792 24.2578 21.2397 24.2578L12.1328 24.2578C11.5805 24.2578 11.1328 23.8101 11.1328 23.2578L11.1328 13.2872C11.1328 13.133 11.1684 12.9809 11.237 12.8428L15.3111 4.63088C15.4799 4.29057 15.827 4.07531 16.2069 4.07531L19.5146 4.07531C20.2558 4.07531 20.7394 4.85336 20.4113 5.51796L17.404 11.6102C17.0759 12.2748 17.5595 13.0528 18.3007 13.0528L21.2397 13.0528C21.792 13.0528 22.2397 13.5005 22.2397 14.0528L22.2397 23.2578Z" fill="#00702D"/>
<path d="M40.6304 23.2578C40.6304 23.8101 40.1827 24.2578 39.6304 24.2578L30.5234 24.2578C29.9711 24.2578 29.5234 23.8101 29.5234 23.2578L29.5234 13.2872C29.5234 13.133 29.5591 12.9809 29.6276 12.8428L33.7017 4.63088C33.8706 4.29057 34.2176 4.07531 34.5975 4.07531L37.9053 4.07531C38.6464 4.07531 39.13 4.85336 38.802 5.51796L35.7946 11.6102C35.4665 12.2748 35.9502 13.0528 36.6913 13.0528L39.6304 13.0528C40.1827 13.0528 40.6304 13.5005 40.6304 14.0528L40.6304 23.2578Z" fill="#00702D"/>
</svg>
