<svg width="25" height="25" viewBox="0 0 25 25" fill="none" xmlns="http://www.w3.org/2000/svg">
<path d="M16.3463 21.1172V14.1512H18.6793L19.0283 11.4432H16.3463V9.71519C16.3463 8.93119 16.5643 8.39619 17.6883 8.39619H19.1223V5.97419C18.4281 5.90053 17.7304 5.86481 17.0323 5.86719C14.9653 5.86719 13.5503 7.12919 13.5503 9.44719V11.4432H11.2123V14.1512H13.5503V21.1172H4.94434C4.67912 21.1172 4.42477 21.0118 4.23723 20.8243C4.04969 20.6368 3.94434 20.3824 3.94434 20.1172V4.11719C3.94434 3.85197 4.04969 3.59762 4.23723 3.41008C4.42477 3.22254 4.67912 3.11719 4.94434 3.11719H20.9443C21.2096 3.11719 21.4639 3.22254 21.6514 3.41008C21.839 3.59762 21.9443 3.85197 21.9443 4.11719V20.1172C21.9443 20.3824 21.839 20.6368 21.6514 20.8243C21.4639 21.0118 21.2096 21.1172 20.9443 21.1172H16.3463Z" fill="#003816"/>
</svg>
