<svg width="25" height="25" viewBox="0 0 25 25" fill="none" xmlns="http://www.w3.org/2000/svg">
<path d="M21.5693 2.74219H4.31934C3.90449 2.74219 3.56934 3.07734 3.56934 3.49219V20.7422C3.56934 21.157 3.90449 21.4922 4.31934 21.4922H21.5693C21.9842 21.4922 22.3193 21.157 22.3193 20.7422V3.49219C22.3193 3.07734 21.9842 2.74219 21.5693 2.74219ZM18.9443 7.56328L17.9881 8.47969C17.9037 8.54297 17.8639 8.64609 17.8803 8.74688V15.4898C17.8639 15.593 17.9037 15.6961 17.9881 15.757L18.9256 16.6734V16.8773H14.2193V16.6828L15.1873 15.743C15.2834 15.6469 15.2834 15.6187 15.2834 15.4758V10.0195L12.5881 16.8539H12.2248L9.08887 10.0195V14.6016C9.06074 14.7937 9.12871 14.9883 9.26465 15.1266L10.5256 16.6523V16.8563H6.94434V16.6523L8.20527 15.1266C8.27171 15.0579 8.32115 14.9747 8.34964 14.8835C8.37813 14.7924 8.38487 14.6958 8.36934 14.6016V9.30469C8.38574 9.15703 8.32949 9.01406 8.21699 8.91328L7.09668 7.56328V7.35938H10.5771L13.2631 13.2539L15.6279 7.36406H18.9443V7.56328Z" fill="#003816"/>
</svg>
