<svg width="25" height="25" viewBox="0 0 25 25" fill="none" xmlns="http://www.w3.org/2000/svg">
<path d="M20.9443 4.11719H4.94434C3.84434 4.11719 2.95434 5.01719 2.95434 6.11719L2.94434 18.1172C2.94434 19.2172 3.84434 20.1172 4.94434 20.1172H20.9443C22.0443 20.1172 22.9443 19.2172 22.9443 18.1172V6.11719C22.9443 5.01719 22.0443 4.11719 20.9443 4.11719ZM20.9443 7.64719C20.9443 7.93957 20.7937 8.21133 20.5458 8.36629L13.4743 12.7859C13.1501 12.9886 12.7386 12.9886 12.4143 12.7859L5.3429 8.36629C5.09496 8.21133 4.94434 7.93957 4.94434 7.64719C4.94434 6.98114 5.67696 6.57508 6.24177 6.92809L12.4143 10.7859C12.7386 10.9886 13.1501 10.9886 13.4743 10.7859L19.6469 6.92808C20.2117 6.57508 20.9443 6.98114 20.9443 7.64719Z" fill="#003816"/>
</svg>
