<svg width="61" height="61" viewBox="0 0 61 61" fill="none" xmlns="http://www.w3.org/2000/svg">
<g clip-path="url(#clip0_742_7455)">
<path d="M30.9443 0.117188C14.3843 0.117188 0.944336 13.5572 0.944336 30.1172C0.944336 46.6772 14.3843 60.1172 30.9443 60.1172C47.5043 60.1172 60.9443 46.6772 60.9443 30.1172C60.9443 13.5572 47.5043 0.117188 30.9443 0.117188ZM30.9443 9.11719C35.9243 9.11719 39.9443 13.1372 39.9443 18.1172C39.9443 23.0972 35.9243 27.1172 30.9443 27.1172C25.9643 27.1172 21.9443 23.0972 21.9443 18.1172C21.9443 13.1372 25.9643 9.11719 30.9443 9.11719ZM30.9443 51.7172C23.4443 51.7172 16.8143 47.8772 12.9443 42.0572C13.0343 36.0872 24.9443 32.8172 30.9443 32.8172C36.9143 32.8172 48.8543 36.0872 48.9443 42.0572C45.0743 47.8772 38.4443 51.7172 30.9443 51.7172Z" fill="#E9E9E9"/>
</g>
<defs>
<clipPath id="clip0_742_7455">
<rect width="60" height="60" fill="white" transform="translate(0.944336 0.117188)"/>
</clipPath>
</defs>
</svg>
