<svg width="17" height="17" viewBox="0 0 17 17" fill="none" xmlns="http://www.w3.org/2000/svg">
<path fill-rule="evenodd" clip-rule="evenodd" d="M14.881 8.06111C14.8216 8.1794 14.7177 8.2693 14.5921 8.3111C14.4665 8.3529 14.3295 8.3432 14.211 8.28411L8.43401 5.39711L2.65801 8.28511C2.59925 8.31513 2.53513 8.33322 2.46934 8.33834C2.40355 8.34346 2.3374 8.3355 2.2747 8.31493C2.212 8.29437 2.15399 8.26159 2.10402 8.2185C2.05405 8.1754 2.0131 8.12285 1.98354 8.06385C1.95397 8.00486 1.93638 7.9406 1.93177 7.87477C1.92716 7.80894 1.93563 7.74286 1.95668 7.68032C1.97774 7.61778 2.01096 7.56003 2.05444 7.51039C2.09792 7.46075 2.15079 7.42021 2.21001 7.39111L8.21001 4.39111C8.27954 4.35627 8.35624 4.33813 8.43401 4.33813C8.51178 4.33813 8.58848 4.35627 8.65801 4.39111L14.658 7.39111C14.7763 7.45052 14.8662 7.55442 14.908 7.68001C14.9498 7.80561 14.9401 7.94266 14.881 8.06111Z" fill="#00702D"/>
<path fill-rule="evenodd" clip-rule="evenodd" d="M14.881 11.5572C14.8216 11.6755 14.7177 11.7654 14.5921 11.8072C14.4665 11.849 14.3295 11.8393 14.211 11.7802L8.43401 8.8932L2.65801 11.7812C2.59925 11.8112 2.53513 11.8293 2.46934 11.8344C2.40355 11.8396 2.3374 11.8316 2.2747 11.811C2.212 11.7905 2.15399 11.7577 2.10402 11.7146C2.05405 11.6715 2.0131 11.6189 1.98354 11.5599C1.95397 11.501 1.93638 11.4367 1.93177 11.3709C1.92716 11.305 1.93563 11.239 1.95668 11.1764C1.97774 11.1139 2.01096 11.0561 2.05444 11.0065C2.09792 10.9568 2.15079 10.9163 2.21001 10.8872L8.21001 7.8872C8.27954 7.85236 8.35624 7.83422 8.43401 7.83422C8.51178 7.83422 8.58848 7.85236 8.65801 7.8872L14.658 10.8872C14.7763 10.9466 14.8662 11.0505 14.908 11.1761C14.9498 11.3017 14.9401 11.4388 14.881 11.5572Z" fill="#00702D"/>
</svg>
