<svg width="41" height="40" viewBox="0 0 41 40" fill="none" xmlns="http://www.w3.org/2000/svg">
<rect x="0.5" width="40" height="40" rx="20" fill="#00702D"/>
<path d="M26.5 22C25.3954 22 24.5 21.1046 24.5 20C24.5 18.8954 25.3954 18 26.5 18C27.6046 18 28.5 18.8954 28.5 20C28.5 20.5304 28.2893 21.0391 27.9142 21.4142C27.5391 21.7893 27.0304 22 26.5 22ZM20.5 22C19.3954 22 18.5 21.1046 18.5 20C18.5 18.8954 19.3954 18 20.5 18C21.6046 18 22.5 18.8954 22.5 20C22.5 20.5304 22.2893 21.0391 21.9142 21.4142C21.5391 21.7893 21.0304 22 20.5 22ZM14.5 22C13.3954 22 12.5 21.1046 12.5 20C12.5 18.8954 13.3954 18 14.5 18C15.6046 18 16.5 18.8954 16.5 20C16.5 20.5304 16.2893 21.0391 15.9142 21.4142C15.5391 21.7893 15.0304 22 14.5 22Z" fill="white"/>
</svg>
