<svg width="46" height="51" viewBox="0 0 46 51" fill="none" xmlns="http://www.w3.org/2000/svg">
<path d="M45.3261 40.5171L8.11588 40.5171C7.45796 40.5171 6.82699 40.7784 6.36177 41.2437C5.89655 41.7089 5.63519 42.3399 5.63519 42.9978C5.63519 43.6557 5.89655 44.2867 6.36177 44.7519C6.82699 45.2171 7.45796 45.4785 8.11588 45.4785L45.3261 45.4785V50.4398L8.11588 50.4398C6.14212 50.4398 4.24921 49.6557 2.85355 48.2601C1.4579 46.8644 0.673828 44.9715 0.673828 42.9978L0.673828 5.78754C0.673828 4.4717 1.19654 3.20976 2.12698 2.27932C3.05741 1.34889 4.31936 0.826172 5.63519 0.826172L45.3261 0.826172L45.3261 40.5171ZM5.63519 35.6798C6.03706 35.5979 6.45134 35.5557 6.87553 35.5557L40.3647 35.5557L40.3647 5.78754L5.63519 5.78754L5.63519 35.6798ZM32.9227 18.1909L13.0772 18.1909V13.2296L32.9227 13.2296V18.1909Z" fill="#003816"/>
</svg>
