<svg width="65" height="64" viewBox="0 0 65 64" fill="none" xmlns="http://www.w3.org/2000/svg">
<g filter="url(#filter0_d_2571_537)">
<rect x="12.5" y="6" width="40" height="40" rx="20" fill="#00702D" shape-rendering="crispEdges"/>
<path d="M38.5 28C37.3954 28 36.5 27.1046 36.5 26C36.5 24.8954 37.3954 24 38.5 24C39.6046 24 40.5 24.8954 40.5 26C40.5 26.5304 40.2893 27.0391 39.9142 27.4142C39.5391 27.7893 39.0304 28 38.5 28ZM32.5 28C31.3954 28 30.5 27.1046 30.5 26C30.5 24.8954 31.3954 24 32.5 24C33.6046 24 34.5 24.8954 34.5 26C34.5 26.5304 34.2893 27.0391 33.9142 27.4142C33.5391 27.7893 33.0304 28 32.5 28ZM26.5 28C25.3954 28 24.5 27.1046 24.5 26C24.5 24.8954 25.3954 24 26.5 24C27.6046 24 28.5 24.8954 28.5 26C28.5 26.5304 28.2893 27.0391 27.9142 27.4142C27.5391 27.7893 27.0304 28 26.5 28Z" fill="white"/>
</g>
<defs>
<filter id="filter0_d_2571_537" x="0.5" y="0" width="64" height="64" filterUnits="userSpaceOnUse" color-interpolation-filters="sRGB">
<feFlood flood-opacity="0" result="BackgroundImageFix"/>
<feColorMatrix in="SourceAlpha" type="matrix" values="0 0 0 0 0 0 0 0 0 0 0 0 0 0 0 0 0 0 127 0" result="hardAlpha"/>
<feOffset dy="6"/>
<feGaussianBlur stdDeviation="6"/>
<feComposite in2="hardAlpha" operator="out"/>
<feColorMatrix type="matrix" values="0 0 0 0 0 0 0 0 0 0 0 0 0 0 0 0 0 0 0.25 0"/>
<feBlend mode="normal" in2="BackgroundImageFix" result="effect1_dropShadow_2571_537"/>
<feBlend mode="normal" in="SourceGraphic" in2="effect1_dropShadow_2571_537" result="shape"/>
</filter>
</defs>
</svg>
