<svg width="60" height="61" viewBox="0 0 60 61" fill="none" xmlns="http://www.w3.org/2000/svg">
<path d="M12.9474 57.433H13.1474V57.233C13.1474 53.8349 15.902 51.0802 19.3001 51.0802C22.6982 51.0802 25.4529 53.8349 25.4529 57.233V57.433H25.6529H28.8292H29.0292V57.233C29.0292 51.8597 24.6734 47.5038 19.3001 47.5038C13.9269 47.5038 9.571 51.8597 9.571 57.233V57.433H9.771H12.9474ZM19.3001 46.3156H19.3004C22.9173 46.3111 25.8483 43.3801 25.8529 39.7632V39.7629C25.8529 36.1439 22.9191 33.2102 19.3001 33.2102C15.6811 33.2102 12.7474 36.1439 12.7474 39.7629C12.7474 43.3819 15.6811 46.3156 19.3001 46.3156ZM22.2765 39.7629V39.9013C22.201 41.5235 20.8388 42.7862 19.215 42.738C17.5897 42.6897 16.304 41.3461 16.3273 39.7203C16.3506 38.0945 17.6742 36.7883 19.3001 36.7865C20.9439 36.7865 22.2765 38.1191 22.2765 39.7629Z" fill="#003816" stroke="#003816" stroke-width="0.4"/>
<path d="M34.3473 57.433H34.5473V57.233C34.5473 53.8349 37.302 51.0802 40.7 51.0802C44.0981 51.0802 46.8528 53.8349 46.8528 57.233V57.433H47.0528H50.2291H50.4291V57.233C50.4291 51.8597 46.0733 47.5038 40.7 47.5038C35.3268 47.5038 30.9709 51.8597 30.9709 57.233V57.433H31.1709H34.3473ZM40.7 46.3156H40.7003C44.3172 46.3111 47.2483 43.3801 47.2528 39.7632V39.7629C47.2528 36.1439 44.319 33.2102 40.7 33.2102C37.081 33.2102 34.1473 36.1439 34.1473 39.7629C34.1473 43.3819 37.081 46.3156 40.7 46.3156ZM43.6764 39.7629V39.9013C43.601 41.5235 42.2387 42.7862 40.6149 42.738C38.9896 42.6897 37.7039 41.3461 37.7272 39.7203C37.7505 38.0945 39.0741 36.7883 40.7 36.7865C42.3438 36.7865 43.6764 38.1191 43.6764 39.7629Z" fill="#003816" stroke="#003816" stroke-width="0.4"/>
<path d="M43.7965 31.6239L43.4765 31.3839L36.9502 26.4892L36.9499 26.489C36.5145 26.1612 35.9841 25.9844 35.439 25.9854L35.4387 25.9854L25.9212 25.9854C24.309 25.9854 23.002 24.6784 23.002 23.0661V22.8661H23.202L36.3437 22.8661L36.3442 22.8661M43.7965 31.6239L37.9758 23.61C37.5058 23.2555 36.9328 23.0645 36.3442 23.0661V22.8661M43.7965 31.6239V31.2239V13.5487C43.7965 11.9364 42.4895 10.6294 40.8772 10.6294H40.6772V10.8294V25.3855L43.7965 31.6239ZM36.3442 22.8661C36.9762 22.8645 37.5913 23.0696 38.0959 23.4501L36.3442 22.8661ZM19.3231 19.9469L21.9041 18.0118C21.9042 18.0117 21.9043 18.0116 21.9043 18.0116C22.409 17.6311 23.0242 17.426 23.6563 17.4276H23.6561V17.6276L23.6566 17.4276L19.3231 19.9469ZM19.3231 19.9469V6.95052V19.9469ZM16.2038 25.7854V26.1854L16.5238 25.9454L23.0501 21.0507L23.0503 21.0505C23.4858 20.7227 24.0162 20.5458 24.5612 20.5469H24.5616L35.4387 20.5469C37.0509 20.5469 38.3579 19.2399 38.3579 17.6276V6.75052C38.3579 5.13825 37.0509 3.83125 35.4387 3.83125L19.1231 3.83125C17.5108 3.83125 16.2038 5.13825 16.2038 6.75052L16.2038 25.7854ZM35.2387 17.4276V17.6276H35.4387V17.4276H35.2387ZM35.4387 6.75052V6.95052H35.2387V6.75052H35.4387ZM19.1231 6.75052H19.3231L19.1231 6.95052V6.75052Z" fill="#003816" stroke="#003816" stroke-width="0.4"/>
</svg>
