<svg width="60" height="61" viewBox="0 0 60 61" fill="none" xmlns="http://www.w3.org/2000/svg">
<path d="M51.125 15.5328L47.6 12.0078L43.125 16.5078L46.65 20.0328L51.125 15.5328ZM32.5 13.2578L27.5 13.2578L27.5 5.75782L32.5 5.75781L32.5 13.2578ZM57.5 35.7578L50 35.7578L50 30.7578L57.5 30.7578L57.5 35.7578ZM27.5 53.1328L27.5 43.2328L25 41.7828C21.9 39.9828 20 36.6828 20 33.1328C20 27.6078 24.475 23.1328 30 23.1328C35.525 23.1328 40 27.6078 40 33.1328C40 36.6828 38.075 39.9828 35 41.7828L32.5 43.2328L32.5 53.1328L27.5 53.1328ZM22.5 58.1328L37.5 58.1328L37.5 46.1078C41.975 43.5078 45 38.6828 45 33.1328C45 24.8578 38.275 18.1328 30 18.1328C21.725 18.1328 15 24.8578 15 33.1328C15 38.6828 18.025 43.5078 22.5 46.1078L22.5 58.1328ZM10 35.7578L2.5 35.7578L2.5 30.7578L10 30.7578L10 35.7578ZM16.9 16.4828L12.425 11.9828L8.89999 15.5078L13.4 19.9828L16.9 16.4828Z" fill="#003816"/>
</svg>
