<svg width="50" height="39" viewBox="0 0 50 39" fill="none" xmlns="http://www.w3.org/2000/svg">
<path d="M5 38.1328H0C0 29.8485 6.71573 23.1328 15 23.1328C23.2843 23.1328 30 29.8485 30 38.1328L25 38.1328C25 32.61 20.5228 28.1328 15 28.1328C9.47715 28.1328 5 32.61 5 38.1328ZM42.5 30.6328H37.5L37.5 23.1328H30V18.1328H37.5V10.6328H42.5V18.1328L50 18.1328V23.1328L42.5 23.1328L42.5 30.6328ZM15 20.6328C9.47715 20.6328 5 16.1557 5 10.6328C5 5.10996 9.47715 0.632812 15 0.632812C20.5228 0.632812 25 5.10996 25 10.6328C24.9931 16.1528 20.52 20.6259 15 20.6328ZM15 5.63281C12.2685 5.63558 10.0447 7.82993 10.0056 10.5612C9.96644 13.2924 12.1264 15.5496 14.8567 15.6306C17.587 15.7116 19.8771 13.5866 20 10.8578V11.8578V10.6328C20 7.87139 17.7614 5.63281 15 5.63281Z" fill="#003816"/>
</svg>
